<?xml version="1.0" encoding="utf-8"?>
<!-- Generator: Adobe Illustrator 24.2.1, SVG Export Plug-In . SVG Version: 6.00 Build 0)  -->
<svg version="1.1" id="Layer_1" xmlns="http://www.w3.org/2000/svg" xmlns:xlink="http://www.w3.org/1999/xlink" x="0px" y="0px"
	 viewBox="0 0 300 300" style="enable-background:new 0 0 300 300;" xml:space="preserve">
<style type="text/css">
	.st0{fill:#FFFFFF;}
</style>
<g>
	<path class="st0" d="M255.39,61.55h3.76c1,0,1.96-0.4,2.66-1.1c0.71-0.71,1.1-1.66,1.1-2.66V42.73c0-1-0.4-1.96-1.1-2.66
		c-0.71-0.71-1.66-1.1-2.66-1.1h-15.06c-2.08,0-3.76,1.69-3.76,3.76v3.76h-75.28v-7.53c0-1-0.4-1.96-1.1-2.66
		c-0.71-0.71-1.66-1.1-2.66-1.1h-22.58c-2.08,0-3.76,1.69-3.76,3.76v7.53H59.67v-3.76c0-1-0.4-1.96-1.1-2.66
		c-0.71-0.71-1.66-1.1-2.66-1.1H40.85c-2.08,0-3.76,1.69-3.76,3.76v15.06c0,1,0.4,1.96,1.1,2.66c0.71,0.71,1.66,1.1,2.66,1.1h3.76
		v176.9h-3.76c-2.08,0-3.76,1.69-3.76,3.76v15.06c0,1,0.4,1.96,1.1,2.66c0.71,0.71,1.66,1.1,2.66,1.1h15.06c1,0,1.96-0.4,2.66-1.1
		c0.71-0.71,1.1-1.66,1.1-2.66v-3.76h75.28v7.53c0,1,0.4,1.96,1.1,2.66c0.71,0.71,1.66,1.1,2.66,1.1h22.58c1,0,1.96-0.4,2.66-1.1
		c0.71-0.71,1.1-1.66,1.1-2.66v-7.53h75.28v3.76c0,1,0.4,1.96,1.1,2.66c0.71,0.71,1.66,1.1,2.66,1.1h15.06c1,0,1.96-0.4,2.66-1.1
		c0.71-0.71,1.1-1.66,1.1-2.66v-15.06c0-1-0.4-1.96-1.1-2.66c-0.71-0.71-1.66-1.1-2.66-1.1h-3.76L255.39,61.55L255.39,61.55z
		 M240.33,54.02v3.76c0,1,0.4,1.96,1.1,2.66s1.66,1.1,2.66,1.1h3.76v49.94c-5.34-13.02-13.26-24.82-23.28-34.69
		c-10.02-9.88-21.93-17.62-35.02-22.78L240.33,54.02z M142.47,50.9v-8.17h15.06v15.06h-15.06V50.9z M44.61,46.5h7.53v7.53h-7.53
		V46.5z M52.14,61.55h3.76c1,0,1.96-0.4,2.66-1.1c0.71-0.71,1.1-1.66,1.1-2.66v-3.76h50.77C97.34,59.18,85.42,66.93,75.4,76.8
		c-10.02,9.88-17.94,21.68-23.27,34.7L52.14,61.55z M52.14,253.5h-7.53v-7.53h7.53V253.5z M55.91,238.45h-3.76v-49.98
		c5.34,13.04,13.27,24.86,23.31,34.74s21.98,17.63,35.1,22.77H59.67v-3.76c0-1-0.4-1.96-1.1-2.66
		C57.86,238.85,56.9,238.45,55.91,238.45L55.91,238.45z M138.71,234.68c-2.08,0-3.76,1.69-3.76,3.76v6.36
		c-22.94-3.11-43.98-14.43-59.21-31.86S52.11,173.15,52.11,150s8.39-45.51,23.62-62.95C90.97,69.62,112,58.3,134.94,55.19v6.36
		c0,1,0.4,1.96,1.1,2.66c0.7,0.7,1.66,1.1,2.66,1.1h22.58c1,0,1.96-0.4,2.66-1.1s1.1-1.66,1.1-2.66v-6.36
		c22.88,3.25,43.82,14.61,59.02,32.02c15.2,17.4,23.64,39.69,23.78,62.79c0.02,15.8-3.92,31.35-11.45,45.23
		c-7.53,13.88-18.43,25.66-31.68,34.26l-15.06-40.8c-1.34-3.98-1.53-8.25-0.55-12.33s3.08-7.8,6.08-10.74
		c0.7-0.77,1.06-1.79,0.98-2.82c-0.09-1.04-0.61-1.99-1.43-2.63l-64.17-51.15c-1.41-4.45-0.76-9.29,1.77-13.21
		c4.1-5.19,13.66-7.11,27.59-5.53s23.64-0.56,28.83-6.32l0,0c3.19-3.45,4.58-8.2,3.76-12.83L185,72.77l0,0
		c0.31,2.22-0.34,4.47-1.81,6.17c-3.39,3.76-11.29,5.08-22.58,3.76c-16.9-1.92-28.45,0.9-34.33,8.39
		c-4.1,5.93-5.21,13.42-3.01,20.29l-16.07,80.85c-0.21,1.03,0.03,2.11,0.65,2.96s1.57,1.4,2.62,1.52c4.26,0.17,8.37,1.56,11.86,4.01
		c3.48,2.45,6.19,5.85,7.79,9.8l8.84,24.16L138.71,234.68z M137.2,207.93c-3.65-9.41-11.93-16.24-21.87-18.03l13.02-64.81
		l13.32,36.43c-2.39,1.74-4.15,4.2-5.01,7.03s-0.78,5.85,0.23,8.63c1.26,3.35,3.81,6.06,7.08,7.53c1.79,0.85,3.74,1.29,5.72,1.28
		c3.71,0.02,7.26-1.47,9.84-4.13s3.97-6.26,3.84-9.96c-0.13-3.7-1.76-7.2-4.52-9.67c-2.76-2.48-6.41-3.72-10.1-3.44l-13.32-36.43
		l51.83,41.33c-6.07,7.84-7.77,18.22-4.52,27.59l4.37,11.97l-45.54,16.64L137.2,207.93z M147.59,166.94
		c0.68-0.25,1.39-0.38,2.11-0.38c2.09,0,4.03,1.07,5.16,2.82c1.13,1.76,1.28,3.97,0.41,5.87c-0.7,1.47-1.94,2.6-3.46,3.16
		c-1.49,0.62-3.17,0.62-4.67,0c-1.6-0.77-2.76-2.22-3.16-3.95C143,171.39,144.59,168.1,147.59,166.94L147.59,166.94z M157.53,249.1
		v8.17h-15.06v-15.06h15.06V249.1z M182.56,240.52l-1.09,0.34c-2.3,0.79-4.63,1.43-6.96,2.03l-1.51,0.38
		c-2.51,0.6-5.02,1.09-7.53,1.47h-0.38v-6.29c0-1-0.4-1.96-1.1-2.66c-0.71-0.71-1.66-1.1-2.66-1.1h-14.34l-2.82-7.75l45.54-16.67
		l8.47,23.22l-0.64,0.34c-2.18,1.2-4.4,2.33-6.66,3.35l-0.87,0.38l-0.45,0.23c-2.3,0.98-4.59,1.88-6.93,2.71L182.56,240.52z
		 M240.33,242.21v3.76h-50.85c2.26-0.9,4.48-1.92,6.66-2.97l1.73-0.87c2.26-1.17,4.48-2.33,6.66-3.76c2.26-1.35,4.44-2.82,6.59-4.29
		l1.99-1.47c1.43-1.09,2.86-2.18,4.25-3.31l2.11-1.77c1.35-1.17,2.71-2.37,3.99-3.76l1.69-1.62c1.81-1.81,3.54-3.65,5.19-5.53
		l0.45-0.56c1.51-1.77,2.94-3.54,4.29-5.38c0.49-0.64,0.94-1.32,1.39-1.99c1.02-1.43,1.99-2.86,2.94-4.33l1.35-2.22
		c0.94-1.58,1.81-3.16,2.63-4.74c0.34-0.64,0.72-1.28,1.02-1.92c1.13-2.26,2.18-4.52,3.12-6.85v49.83h-3.46
		C242.01,238.45,240.33,240.13,240.33,242.21L240.33,242.21z M255.38,253.5h-7.53v-7.53h7.53V253.5z M247.86,54.02V46.5h7.53v7.53
		L247.86,54.02L247.86,54.02z"/>
</g>
</svg>
