<?xml version="1.0" encoding="utf-8"?>
<!-- Generator: Adobe Illustrator 24.2.1, SVG Export Plug-In . SVG Version: 6.00 Build 0)  -->
<svg version="1.1" id="Layer_1" xmlns="http://www.w3.org/2000/svg" xmlns:xlink="http://www.w3.org/1999/xlink" x="0px" y="0px"
	 viewBox="0 0 300 300" style="enable-background:new 0 0 300 300;" xml:space="preserve">
<style type="text/css">
	.st0{fill:#FFFFFF;}
</style>
<g>
	<path d="M-303.28,216.85c24.71-21.17,48.87-41.88,73.35-62.85c-24.38-20.9-48.55-41.62-73.29-62.82c-0.23,2.23-0.48,3.85-0.54,5.47
		c-0.11,2.97,0.07,5.97-0.18,8.92c-0.31,3.55-2.98,5.85-6.38,5.85c-3.37,0.01-6.35-2.36-6.43-5.8c-0.13-5.08-0.29-10.26,0.5-15.25
		c1.9-12.06,12.57-20.95,24.77-21.27c0.74-0.02,1.49-0.03,2.23-0.03c66.58,0,133.16-0.01,199.74,0.01c13.75,0,24.15,7.99,26.9,20.72
		c0.51,2.36,0.57,4.86,0.57,7.29c0.03,37.96,0.04,75.92,0.01,113.88c-0.01,17.04-10.9,27.93-27.9,27.93
		c-66.37,0.01-132.73,0.01-199.1,0c-16.88,0-27.84-11.07-27.86-28.03c0-2.45-0.05-4.89,0.01-7.34c0.1-4.15,2.6-6.87,6.32-6.97
		c3.88-0.11,6.53,2.54,6.72,6.88c0.12,2.65-0.01,5.32,0.06,7.97C-303.72,212.98-303.49,214.52-303.28,216.85z M-293.3,82.32
		c1.35,1.23,2.02,1.88,2.73,2.49c31.75,27.16,63.5,54.33,95.26,81.48c4.56,3.9,7.27,3.9,11.74,0.07
		c31.83-27.24,63.66-54.48,95.48-81.72c0.69-0.59,1.34-1.25,2.48-2.32C-154.96,82.32-223.68,82.32-293.3,82.32z M-293.32,225.56
		c69.58,0,138.32,0,207.84,0c-24.9-21.35-49.16-42.15-73.53-63.05c-6.18,5.36-12.04,10.6-18.08,15.64
		c-6.86,5.72-15.95,6.14-23.07,1.25c-0.96-0.66-1.84-1.44-2.72-2.21c-5.61-4.85-11.2-9.7-16.95-14.68
		C-244.29,183.5-268.53,204.29-293.32,225.56z M-148.88,154c24.47,20.97,48.63,41.68,72.86,62.44c1.45-3.6,1.38-121.57-0.06-124.83
		C-100.23,112.31-124.33,132.96-148.88,154z"/>
	<path d="M-320.33,176.92c-9.46,0-18.92,0.05-28.37-0.02c-5.01-0.04-8.02-3.49-7.15-7.95c0.62-3.2,3.28-5.16,7.39-5.19
		c8.18-0.06,16.37-0.02,24.55-0.02c10.63,0,21.25-0.03,31.88,0.02c4.42,0.02,7.23,2.14,7.71,5.6c0.59,4.31-2.42,7.52-7.31,7.56
		C-301.2,176.97-310.76,176.92-320.33,176.92z"/>
	<path d="M-310.36,131.08c6.17,0,12.33-0.03,18.5,0.01c4.64,0.03,7.5,2.49,7.59,6.38c0.1,4.04-2.78,6.75-7.53,6.78
		c-12.33,0.07-24.66,0.06-36.99,0c-4.73-0.02-7.76-2.79-7.67-6.71c0.09-3.91,3.13-6.42,7.93-6.45
		C-322.48,131.05-316.42,131.08-310.36,131.08z"/>
</g>
<g>
	<path d="M-238.19-109c-1.8-0.43-3.61-0.8-5.38-1.29c-15.14-4.23-25.53-17.59-26.1-33.38c-0.04-1.06-0.55-2.44-1.33-3.08
		c-6.31-5.16-7.39-12.43-2.67-19.03c0.2-0.28,0.38-0.58,0.59-0.92c-4.3-5.65-4.84-11.4-0.7-17.41c0.38-0.55,0.04-1.85-0.34-2.62
		c-5.25-10.9-10.26-21.94-15.94-32.61c-5.83-10.96-9.21-22.34-8.71-34.8c0.29-7.23,1.81-14.19,4.48-20.9
		c1.22-3.08,3.28-4.22,5.67-3.22c2.24,0.94,2.88,3.1,1.74,6.09c-6.39,16.75-4.99,32.86,3.59,48.57c4.79,8.76,9.11,17.77,13.56,26.71
		c1.29,2.6,2.3,5.35,3.35,7.84c3.53,0,6.87,0,10.56,0c0-1.29,0-2.32,0-3.36c0-15.67-0.04-31.34,0.06-47.01
		c0.01-1.77,0.49-3.7,1.31-5.27c4.08-7.85,8.38-15.57,12.51-23.39c1.51-2.86,3.47-4.98,6.89-5.01c3.41-0.03,5.42,2.06,6.94,4.92
		c4.18,7.89,8.51,15.7,12.64,23.62c0.78,1.49,1.22,3.34,1.23,5.03c0.09,15.67,0.05,31.34,0.05,47.01c0,1.04,0,2.08,0,3.42
		c3.58,0,6.9,0,10.56,0c1.01-2.34,2.03-5.06,3.32-7.65c4.86-9.73,9.71-19.46,14.73-29.1c14.82-28.47,2.76-63.62-26.46-76.88
		c-22.05-10.01-48.27-4.47-64.29,13.57c-0.41,0.46-0.8,0.96-1.25,1.38c-1.75,1.62-3.88,1.73-5.5,0.32
		c-1.69-1.47-1.89-3.77-0.31-5.68c4.43-5.38,9.67-9.85,15.64-13.43c38.15-22.91,87.79-0.21,95.52,43.65
		c2.52,14.27,0.32,27.75-6.24,40.67c-5.96,11.74-11.61,23.63-17.45,35.43c-0.71,1.44-0.55,2.45,0.31,3.82
		c3.55,5.66,2.68,11.1-0.81,15.62c1.08,3.34,2.37,6.16,2.85,9.12c0.6,3.67-1.01,6.86-3.37,9.73c-0.8,0.98-1.4,2.41-1.46,3.67
		c-0.26,5.92-1.42,11.57-4.22,16.84c-1.57,2.96-3.68,3.9-5.95,2.66c-2.2-1.2-2.64-3.34-1.17-6.2c2.01-3.91,3.17-8.02,3.2-12.67
		c-18.36,0-36.6,0-55.1,0c0.22,8.77,3.64,15.91,10.43,21.2c8.51,6.63,17.96,7.79,28.01,3.83c0.49-0.19,0.96-0.46,1.46-0.64
		c2.23-0.8,4.3-0.09,5.23,1.78c0.99,2,0.33,4.41-1.92,5.34c-3.08,1.28-6.34,2.14-9.52,3.18c-0.57,0.19-1.15,0.36-1.72,0.54
		C-232.52-109-235.35-109-238.19-109z M-235.06-152.43c9.29,0,18.57,0.02,27.85-0.01c3.39-0.01,5.5-1.78,5.73-4.62
		c0.25-3.07-1.51-5.05-5-5.62c-2.59-0.42-4.17-1.94-4.02-4.09c0.17-2.35,1.54-3.57,3.91-3.9c3.55-0.49,5.31-2.49,5.12-5.55
		c-0.18-2.95-2.31-4.71-5.89-4.77c-3.27-0.06-6.54-0.06-9.81-0.05c-15.39,0.05-30.77,0.08-46.16,0.2c-3.28,0.03-5.14,1.91-5.23,4.77
		c-0.1,2.87,1.66,4.85,4.75,5.39c2.92,0.51,4.47,1.87,4.29,4.06c-0.21,2.65-1.91,3.7-4.44,4c-3.03,0.36-4.77,2.57-4.59,5.45
		c0.18,2.86,2.28,4.71,5.63,4.72C-253.63-152.41-244.34-152.43-235.06-152.43z M-247.66-237.04c0,16.12,0,31.93,0,47.74
		c2.96,0,5.73,0,8.47,0c0-16.02,0-31.82,0-47.74C-242.1-237.04-244.8-237.04-247.66-237.04z M-230.83-237.02c0,16.12,0,31.9,0,47.77
		c2.94,0,5.7,0,8.47,0c0-16.05,0-31.9,0-47.77C-225.27-237.02-227.97-237.02-230.83-237.02z M-244.85-245.32c6.66,0,13.12,0,19.64,0
		c-2.07-5.88-2.07-5.88-7.74-5.88c-1.24,0-2.52,0.21-3.71-0.04c-4.39-0.9-6.74,1.21-7.99,5.12
		C-244.7-245.95-244.74-245.78-244.85-245.32z M-235.01-264.06c-0.98,1.85-1.69,3.17-2.49,4.67c1.86,0,3.26,0,5.02,0
		C-233.34-260.99-234.03-262.27-235.01-264.06z"/>
	<path d="M-278.35-317.5c-0.76,4.52-2.71,7.74-6.55,9.56c-3.93,1.86-8.02,1.66-11.16-1.34c-7.86-7.51-15.58-15.19-23.07-23.06
		c-3.74-3.94-3.2-10.12,0.58-13.97c3.88-3.96,10.12-4.62,14.15-0.81c7.89,7.48,15.55,15.21,23.05,23.08
		C-279.79-322.39-279.32-319.7-278.35-317.5z M-286.92-318c-0.32-0.45-0.81-1.37-1.51-2.08c-4.46-4.52-8.97-9-13.46-13.49
		c-2.31-2.31-4.61-4.62-6.93-6.92c-1.23-1.22-2.62-1.58-3.95-0.24c-1.33,1.34-0.94,2.71,0.27,3.95c0.31,0.32,0.62,0.63,0.93,0.94
		c6.36,6.37,12.73,12.73,19.1,19.09c0.56,0.56,1.11,1.18,1.79,1.54C-288.92-314.26-286.95-315.46-286.92-318z"/>
	<path d="M-191.15-318.98c0.62-1.18,1.4-3.96,3.16-5.81c7-7.37,14.24-14.52,21.52-21.63c4.34-4.24,10.62-4.18,14.8-0.12
		c4.24,4.12,4.45,10.6,0.17,15c-7.16,7.35-14.42,14.6-21.77,21.75c-3.28,3.19-7.36,3.83-11.55,1.99
		C-188.92-309.61-190.97-312.96-191.15-318.98z M-159.52-341.55c-0.42,0.28-1.23,0.66-1.83,1.26c-6.89,6.84-13.75,13.7-20.59,20.59
		c-1.58,1.59-1.56,3.95,0.12,4.35c1.16,0.28,2.99-0.24,3.86-1.08c6.73-6.5,13.29-13.16,19.9-19.78c0.49-0.49,1.01-1.02,1.32-1.64
		C-155.88-339.56-157.22-341.62-159.52-341.55z"/>
	<path d="M-224.39-355.18c0,4.86,0.03,9.73-0.01,14.59c-0.05,6.48-4.53,11.15-10.63,11.14c-6.09-0.01-10.54-4.69-10.56-11.2
		c-0.03-9.73-0.04-19.46,0-29.18c0.02-6.45,4.58-11.18,10.63-11.17c6.05,0.02,10.52,4.74,10.57,11.23
		C-224.37-364.91-224.39-360.04-224.39-355.18z M-232.36-355.24c0-4.68-0.02-9.36,0.01-14.04c0.01-1.97-0.41-3.73-2.75-3.67
		c-2.15,0.05-2.55,1.74-2.55,3.6c0.02,9.45,0.02,18.89,0,28.34c0,1.86,0.41,3.51,2.61,3.53c2.19,0.02,2.69-1.58,2.68-3.46
		C-232.38-345.71-232.36-350.48-232.36-355.24z"/>
	<path d="M-330.49-252.42c-4.95,0-9.9,0.03-14.86-0.01c-6.02-0.05-10.63-4.39-10.81-10.11c-0.18-5.94,4.1-10.86,10.19-10.99
		c10.34-0.22,20.69-0.21,31.04-0.01c6.08,0.12,10.5,5.06,10.31,10.91c-0.18,5.85-4.81,10.16-11.02,10.2
		C-320.58-252.4-325.54-252.42-330.49-252.42z M-330.36-260.39c4.68,0,9.36-0.03,14.04,0.01c1.97,0.02,3.74-0.35,3.67-2.71
		c-0.06-2.15-1.76-2.58-3.61-2.58c-9.45,0.01-18.89,0.01-28.34,0.01c-1.85,0-3.5,0.44-3.53,2.64c-0.03,2.23,1.58,2.65,3.47,2.63
		C-339.9-260.41-335.13-260.39-330.36-260.39z"/>
	<path d="M-139.55-252.42c-4.95,0-9.9,0.03-14.86-0.01c-6.18-0.04-10.83-4.39-10.99-10.23c-0.16-5.93,4.4-10.82,10.61-10.91
		c10.08-0.15,20.16-0.14,30.24-0.01c6.29,0.08,10.78,4.79,10.69,10.8c-0.09,5.97-4.74,10.32-11.11,10.35
		C-129.82-252.4-134.68-252.42-139.55-252.42z M-139.77-260.39c4.86,0,9.71-0.02,14.57,0.01c1.8,0.01,3.29-0.47,3.33-2.51
		c0.05-2.19-1.53-2.76-3.41-2.76c-9.53,0-19.07,0-28.6,0c-1.88,0-3.5,0.55-3.47,2.71c0.02,2.18,1.67,2.59,3.55,2.57
		C-149.13-260.42-144.45-260.39-139.77-260.39z"/>
</g>
<g>
	<path d="M-129.61-168.45h3.76c1,0,1.96-0.4,2.66-1.1c0.71-0.71,1.1-1.66,1.1-2.66v-15.06c0-1-0.4-1.96-1.1-2.66
		c-0.71-0.71-1.66-1.1-2.66-1.1h-15.06c-2.08,0-3.76,1.69-3.76,3.76v3.76h-75.28v-7.53c0-1-0.4-1.96-1.1-2.66s-1.66-1.1-2.66-1.1
		h-22.58c-2.08,0-3.76,1.69-3.76,3.76v7.53h-75.28v-3.76c0-1-0.4-1.96-1.1-2.66c-0.71-0.71-1.66-1.1-2.66-1.1h-15.06
		c-2.08,0-3.76,1.69-3.76,3.76v15.06c0,1,0.4,1.96,1.1,2.66c0.71,0.71,1.66,1.1,2.66,1.1h3.76V8.45h-3.76
		c-2.08,0-3.76,1.69-3.76,3.76v15.06c0,1,0.4,1.96,1.1,2.66c0.71,0.71,1.66,1.1,2.66,1.1h15.06c1,0,1.96-0.4,2.66-1.1
		s1.1-1.66,1.1-2.66V23.5h75.28v7.53c0,1,0.4,1.96,1.1,2.66c0.71,0.71,1.66,1.1,2.66,1.1h22.58c1,0,1.96-0.4,2.66-1.1
		c0.71-0.71,1.1-1.66,1.1-2.66V23.5h75.28v3.76c0,1,0.4,1.96,1.1,2.66s1.66,1.1,2.66,1.1h15.06c1,0,1.96-0.4,2.66-1.1
		c0.71-0.71,1.1-1.66,1.1-2.66V12.21c0-1-0.4-1.96-1.1-2.66c-0.71-0.71-1.66-1.1-2.66-1.1h-3.76L-129.61-168.45L-129.61-168.45z
		 M-144.67-175.98v3.76c0,1,0.4,1.96,1.1,2.66c0.71,0.71,1.66,1.1,2.66,1.1h3.76v49.94c-5.34-13.02-13.26-24.82-23.28-34.69
		c-10.02-9.88-21.93-17.62-35.02-22.78L-144.67-175.98z M-242.53-179.1v-8.17h15.06v15.06h-15.06V-179.1z M-340.39-183.5h7.53v7.53
		h-7.53V-183.5z M-332.86-168.45h3.76c1,0,1.96-0.4,2.66-1.1s1.1-1.66,1.1-2.66v-3.76h50.77c-13.09,5.15-25.01,12.9-35.03,22.77
		c-10.02,9.88-17.94,21.68-23.27,34.7L-332.86-168.45z M-332.86,23.5h-7.53v-7.53h7.53V23.5z M-329.09,8.45h-3.76v-49.98
		c5.34,13.04,13.27,24.86,23.31,34.74s21.98,17.63,35.1,22.77h-50.89v-3.76c0-1-0.4-1.96-1.1-2.66
		C-327.14,8.85-328.1,8.45-329.09,8.45L-329.09,8.45z M-246.29,4.68c-2.08,0-3.76,1.69-3.76,3.76v6.36
		c-22.95-3.1-43.98-14.42-59.21-31.85s-23.62-39.8-23.62-62.95s8.39-45.51,23.62-62.95c15.23-17.43,36.27-28.75,59.21-31.86v6.36
		c0,1,0.4,1.96,1.1,2.66c0.71,0.71,1.66,1.1,2.66,1.1h22.58c1,0,1.96-0.4,2.66-1.1c0.71-0.71,1.1-1.66,1.1-2.66v-6.36
		c22.88,3.25,43.82,14.61,59.02,32.02c15.2,17.4,23.64,39.69,23.78,62.79c0.02,15.8-3.92,31.35-11.45,45.23
		s-18.43,25.66-31.68,34.26l-15.06-40.8c-1.34-3.98-1.53-8.25-0.55-12.33s3.08-7.8,6.08-10.74c0.7-0.77,1.06-1.79,0.98-2.82
		c-0.09-1.04-0.61-1.99-1.43-2.63l-64.17-51.15c-1.41-4.45-0.76-9.29,1.77-13.21c4.1-5.19,13.66-7.11,27.59-5.53
		c13.93,1.58,23.64-0.56,28.83-6.32l0,0c3.19-3.45,4.58-8.2,3.76-12.83l-7.53,1.66l0,0c0.31,2.22-0.34,4.47-1.81,6.17
		c-3.39,3.76-11.29,5.08-22.58,3.76c-16.9-1.92-28.45,0.9-34.33,8.39c-4.1,5.93-5.21,13.42-3.01,20.29l-16.07,80.85
		c-0.21,1.03,0.03,2.11,0.65,2.96s1.57,1.4,2.62,1.52c4.26,0.17,8.37,1.56,11.86,4.01c3.48,2.45,6.19,5.85,7.79,9.8l8.84,24.16
		L-246.29,4.68z M-247.8-22.07c-3.65-9.41-11.93-16.24-21.87-18.03l13.02-64.81l13.32,36.43c-2.39,1.74-4.15,4.2-5.01,7.03
		s-0.78,5.85,0.23,8.63c1.26,3.35,3.81,6.06,7.08,7.53c1.79,0.85,3.74,1.29,5.72,1.28c3.71,0.02,7.26-1.47,9.84-4.13
		s3.97-6.26,3.84-9.96c-0.13-3.7-1.76-7.2-4.52-9.67c-2.76-2.48-6.41-3.72-10.1-3.44l-13.32-36.43l51.83,41.33
		c-6.07,7.84-7.77,18.22-4.52,27.59l4.37,11.97l-45.54,16.64L-247.8-22.07z M-237.41-63.06c0.68-0.25,1.39-0.38,2.11-0.38
		c2.09,0,4.03,1.07,5.16,2.82c1.13,1.76,1.28,3.97,0.41,5.87c-0.7,1.47-1.94,2.6-3.46,3.16c-1.49,0.62-3.17,0.62-4.67,0
		c-1.6-0.77-2.76-2.22-3.16-3.95C-242-58.61-240.41-61.9-237.41-63.06L-237.41-63.06z M-227.47,19.1v8.17h-15.06V12.21h15.06V19.1z
		 M-202.44,10.52l-1.09,0.34c-2.3,0.79-4.63,1.43-6.96,2.03l-1.51,0.38c-2.51,0.6-5.02,1.09-7.53,1.47h-0.38V8.45
		c0-1-0.4-1.96-1.1-2.66c-0.71-0.71-1.66-1.1-2.66-1.1h-14.34l-2.82-7.75l45.54-16.67l8.47,23.22l-0.64,0.34
		c-2.18,1.2-4.4,2.33-6.66,3.35l-0.87,0.38l-0.45,0.23c-2.3,0.98-4.59,1.88-6.93,2.71L-202.44,10.52z M-144.67,12.21v3.76h-50.85
		c2.26-0.9,4.48-1.92,6.66-2.97l1.73-0.87c2.26-1.17,4.48-2.33,6.66-3.76c2.26-1.35,4.44-2.82,6.59-4.29l1.99-1.47
		c1.43-1.09,2.86-2.18,4.25-3.31l2.11-1.77c1.35-1.17,2.71-2.37,3.99-3.76l1.69-1.62c1.81-1.81,3.54-3.65,5.19-5.53l0.45-0.56
		c1.51-1.77,2.94-3.54,4.29-5.38c0.49-0.64,0.94-1.32,1.39-1.99c1.02-1.43,1.99-2.86,2.94-4.33l1.35-2.22
		c0.94-1.58,1.81-3.16,2.63-4.74c0.34-0.64,0.72-1.28,1.02-1.92c1.13-2.26,2.18-4.52,3.12-6.85V8.46h-3.46
		C-142.99,8.45-144.67,10.13-144.67,12.21L-144.67,12.21z M-129.62,23.5h-7.53v-7.53h7.53V23.5z M-137.14-175.98v-7.53h7.53v7.53
		H-137.14z"/>
</g>
<g>
	<path class="st0" d="M67.69,279.99c-2.93-1.31-3.89-3.66-3.84-6.74c0.09-5.75-0.08-11.51,0.1-17.26c0.05-1.66,0.51-3.76,1.59-4.81
		c1.05-1.02,3.19-1.39,4.78-1.26c1.97,0.16,3.34,1.75,3.48,3.81c0.21,3.2,0.19,6.42,0.24,9.63c0.03,2.03,0.01,4.05,0.01,6.27
		c50.79,0,101.41,0,152.2,0c0-32.66,0-65.28,0-98.1c-50.61,0-101.24,0-152.2,0c0,0.99,0,1.98,0,2.96c0,12.44,0,24.87,0,37.31
		c0,4.8-1.81,7.3-5.19,7.22c-3.3-0.08-4.96-2.47-4.97-7.18c-0.01-3.89,0-7.77,0-12.08c-1.12,0-2.08,0.01-3.05,0
		c-7.27-0.07-14.59,0.31-21.81-0.32c-9.79-0.85-16.71-7.66-18.66-17.28c-0.08-0.41-0.27-0.79-0.4-1.19c0-31.48,0-62.97,0-94.45
		c0.14-0.39,0.33-0.78,0.41-1.19c1.39-6.9,5.05-12.25,11.49-15.13c3.53-1.58,7.52-2.13,11.72-3.26c0-0.37,0-1.27,0-2.18
		c0-8.12-0.01-16.25,0-24.37c0.01-5.63,1.6-7.19,7.28-7.19c4.29,0,8.58,0,13.04,0c0-2.53-0.04-4.73,0.01-6.92
		c0.09-4.48,1.91-6.27,6.41-6.27c53.32-0.01,106.64-0.01,159.96,0c4.34,0,6.19,1.82,6.29,6.13c0.06,2.26,0.01,4.53,0.01,7.06
		c4.64,0,9.02,0,13.4,0c5.17,0.01,6.89,1.68,6.91,6.8c0.02,8.29,0,16.59,0.01,24.88c0,0.9,0.08,1.79,0.12,2.67
		c0.48,0.09,0.72,0.18,0.96,0.18c13.24,0.1,22.46,10.26,22.07,23.53c-0.3,10.57-0.06,21.15-0.06,31.73c0,17.85,0,35.71,0,53.56
		c-0.01,14.22-8.93,23.18-23.08,23.2c-5.92,0.01-11.85,0-17.77,0c-0.8,0-1.61,0-2.57,0c0,1.49,0,2.58,0,3.68
		c0,23.19-0.03,46.37,0.03,69.56c0.01,3.15-0.79,5.64-3.84,7C177.73,279.99,122.71,279.99,67.69,279.99z M256.88,189.31
		c0.5,0.14,0.73,0.26,0.97,0.27c6.99,0.28,11.96-4.71,11.97-12.13c0.02-28.77,0.01-57.54,0.01-86.31c0-8.96-4.27-13.24-13.19-13.24
		c-71.09,0-142.18,0-213.27,0c-8.97,0-13.27,4.26-13.27,13.16c0,28.51,0,57.03,0,85.54c0,0.93-0.02,1.87,0.07,2.79
		c0.63,6.67,7.03,11.42,13.38,9.78c0-6.81,0-13.66,0-20.51c0-6.04,1.47-7.51,7.47-7.51c66.1,0,132.19,0,198.29,0
		c0.59,0,1.19-0.02,1.78,0c3.7,0.12,5.58,1.91,5.75,5.65c0.11,2.53,0.03,5.08,0.03,7.61C256.88,179.41,256.88,184.38,256.88,189.31z
		 M226.26,67.62c0-12.54,0-24.86,0-37.28c-50.78,0-101.41,0-152.08,0c0,12.5,0,24.82,0,37.28
		C124.88,67.62,175.45,67.62,226.26,67.62z M53.85,43.51c0,8.12,0,16.04,0,24.07c3.37,0,6.61,0,9.9,0c0-8.09,0-16.01,0-24.07
		C60.45,43.51,57.28,43.51,53.85,43.51z M236.71,67.56c3.38,0,6.62,0,9.86,0c0-8.11,0-16.02,0-24c-3.38,0-6.62,0-9.86,0
		C236.71,51.67,236.71,59.58,236.71,67.56z M53.87,189.42c3.38,0,6.61,0,9.86,0c0-6.07,0-11.95,0-17.9c-3.38,0-6.61,0-9.86,0
		C53.87,177.59,53.87,183.47,53.87,189.42z M236.71,189.48c3.36,0,6.53,0,9.83,0c0-6.06,0-11.99,0-18.03c-3.34,0-6.51,0-9.83,0
		C236.71,177.46,236.71,183.33,236.71,189.48z"/>
	<path class="st0" d="M155.52,218.45c0-6.25-0.01-12.51,0-18.76c0.01-4.8,1.77-6.7,6.63-6.47s9.85,0.3,14.5,1.52
		c8.69,2.27,15.15,10.94,16.06,19.87c0.78,7.63-0.41,14.62-5.48,20.65c-4.75,5.64-10.91,8.34-18.18,8.65
		c-2.62,0.11-5.24,0.08-7.86,0.02c-3.68-0.09-5.63-2.02-5.66-5.7C155.48,231.64,155.52,225.04,155.52,218.45z M165.8,233.69
		c6.25,0.52,11.55-1.04,14.77-6.5c3.38-5.73,3.37-11.88-0.17-17.55c-3.28-5.27-8.5-6.79-14.6-6.2
		C165.8,213.51,165.8,223.45,165.8,233.69z"/>
	<path class="st0" d="M117.71,238.49c-0.52,1.07-0.92,2.09-1.49,3.02c-1.23,2.01-3.57,2.83-5.71,2.12
		c-2.29-0.77-3.67-2.86-3.41-5.28c0.08-0.75,0.25-1.5,0.49-2.22c4.31-12.87,8.63-25.75,12.98-38.61c1.27-3.75,4.54-5.44,7.39-3.67
		c1.17,0.73,2.23,2.14,2.68,3.46c4.49,12.99,8.86,26.03,13.22,39.07c1.14,3.42,0.07,6.03-2.76,7.16c-2.75,1.1-5.15-0.23-6.8-3.55
		c-0.32-0.65-1.24-1.42-1.9-1.43C127.52,238.44,122.62,238.49,117.71,238.49z M130.39,228.2c-1.54-4.57-3-8.93-4.7-14.01
		c-1.72,5.13-3.18,9.49-4.69,14.01C124.19,228.2,127.12,228.2,130.39,228.2z"/>
	<path class="st0" d="M73.92,234.18c0.06,2.74-2.14,5.07-4.85,5.15c-2.69,0.08-5.02-2.19-5.08-4.93c-0.06-2.74,2.14-5.07,4.85-5.15
		C71.53,229.18,73.87,231.44,73.92,234.18z"/>
	<path class="st0" d="M87.13,117.62c0.04,9.51-7.68,17.26-17.21,17.25c-9.51-0.01-17.3-7.83-17.21-17.27
		c0.09-9.41,7.68-17.03,17.11-17.17C79.19,100.28,87.09,108.12,87.13,117.62z M76.98,117.69c0.01-3.9-3.16-7.11-7.03-7.12
		c-3.86-0.01-7.07,3.2-7.09,7.09c-0.01,3.92,3.12,7.05,7.05,7.06C73.87,124.72,76.97,121.64,76.98,117.69z"/>
	<path class="st0" d="M116.73,134.86c-9.54-0.07-17.19-7.83-17.09-17.37c0.1-9.39,7.83-17.07,17.19-17.08
		c9.4-0.01,17.34,7.94,17.29,17.3C134.07,127.18,126.2,134.93,116.73,134.86z M109.8,117.42c-0.11,4,2.86,7.17,6.8,7.28
		c3.93,0.11,7.19-2.91,7.36-6.79c0.16-3.8-2.99-7.16-6.87-7.33C113.22,110.42,109.9,113.53,109.8,117.42z"/>
	<path class="st0" d="M163.17,134.86c-9.5,0-17.3-7.79-17.26-17.25c0.05-9.44,8.04-17.35,17.37-17.19
		c9.42,0.16,17.07,7.84,17.13,17.18C180.47,127.06,172.68,134.86,163.17,134.86z M170.26,117.68c0-3.88-3.21-7.09-7.08-7.1
		c-3.87-0.01-7.1,3.21-7.11,7.08c-0.01,3.9,3.16,7.05,7.08,7.05C167.08,124.71,170.26,121.57,170.26,117.68z"/>
	<path class="st0" d="M213.85,122.65c-4.15,0-8.29,0.04-12.44-0.01c-3.39-0.05-5.6-2.01-5.7-4.88c-0.09-2.81,2.12-5.16,5.41-5.2
		c8.55-0.11,17.09-0.11,25.64,0c3.3,0.04,5.52,2.35,5.45,5.17c-0.07,2.88-2.29,4.87-5.66,4.92
		C222.31,122.69,218.08,122.65,213.85,122.65z"/>
	<path class="st0" d="M252.52,117.67c-0.04,2.69-2.39,4.97-5.1,4.93c-2.71-0.03-5.02-2.38-4.97-5.06c0.04-2.67,2.45-5.02,5.1-4.98
		C250.2,112.61,252.56,115.03,252.52,117.67z"/>
</g>
</svg>
