<?xml version="1.0" encoding="utf-8"?>
<!-- Generator: Adobe Illustrator 24.2.1, SVG Export Plug-In . SVG Version: 6.00 Build 0)  -->
<svg version="1.1" id="Layer_1" xmlns="http://www.w3.org/2000/svg" xmlns:xlink="http://www.w3.org/1999/xlink" x="0px" y="0px"
	 viewBox="0 0 300 300" style="enable-background:new 0 0 300 300;" xml:space="preserve">
<style type="text/css">
	.st0{fill:#FFFFFF;}
</style>
<g>
	<path d="M-303.28,216.85c24.71-21.17,48.87-41.88,73.35-62.85c-24.38-20.9-48.55-41.62-73.29-62.82c-0.23,2.23-0.48,3.85-0.54,5.47
		c-0.11,2.97,0.07,5.97-0.18,8.92c-0.31,3.55-2.98,5.85-6.38,5.85c-3.37,0.01-6.35-2.36-6.43-5.8c-0.13-5.08-0.29-10.26,0.5-15.25
		c1.9-12.06,12.57-20.95,24.77-21.27c0.74-0.02,1.49-0.03,2.23-0.03c66.58,0,133.16-0.01,199.74,0.01c13.75,0,24.15,7.99,26.9,20.72
		c0.51,2.36,0.57,4.86,0.57,7.29c0.03,37.96,0.04,75.92,0.01,113.88c-0.01,17.04-10.9,27.93-27.9,27.93
		c-66.37,0.01-132.73,0.01-199.1,0c-16.88,0-27.84-11.07-27.86-28.03c0-2.45-0.05-4.89,0.01-7.34c0.1-4.15,2.6-6.87,6.32-6.97
		c3.88-0.11,6.53,2.54,6.72,6.88c0.12,2.65-0.01,5.32,0.06,7.97C-303.72,212.98-303.49,214.52-303.28,216.85z M-293.3,82.32
		c1.35,1.23,2.02,1.88,2.73,2.49c31.75,27.16,63.5,54.33,95.26,81.48c4.56,3.9,7.27,3.9,11.74,0.07
		c31.83-27.24,63.66-54.48,95.48-81.72c0.69-0.59,1.34-1.25,2.48-2.32C-154.96,82.32-223.68,82.32-293.3,82.32z M-293.32,225.56
		c69.58,0,138.32,0,207.84,0c-24.9-21.35-49.16-42.15-73.53-63.05c-6.18,5.36-12.04,10.6-18.08,15.64
		c-6.86,5.72-15.95,6.14-23.07,1.25c-0.96-0.66-1.84-1.44-2.72-2.21c-5.61-4.85-11.2-9.7-16.95-14.68
		C-244.29,183.5-268.53,204.29-293.32,225.56z M-148.88,154c24.47,20.97,48.63,41.68,72.86,62.44c1.45-3.6,1.38-121.57-0.06-124.83
		C-100.23,112.31-124.33,132.96-148.88,154z"/>
	<path d="M-320.33,176.92c-9.46,0-18.92,0.05-28.37-0.02c-5.01-0.04-8.02-3.49-7.15-7.95c0.62-3.2,3.28-5.16,7.39-5.19
		c8.18-0.06,16.37-0.02,24.55-0.02c10.63,0,21.25-0.03,31.88,0.02c4.42,0.02,7.23,2.14,7.71,5.6c0.59,4.31-2.42,7.52-7.31,7.56
		C-301.2,176.97-310.76,176.92-320.33,176.92z"/>
	<path d="M-310.36,131.08c6.17,0,12.33-0.03,18.5,0.01c4.64,0.03,7.5,2.49,7.59,6.38c0.1,4.04-2.78,6.75-7.53,6.78
		c-12.33,0.07-24.66,0.06-36.99,0c-4.73-0.02-7.76-2.79-7.67-6.71c0.09-3.91,3.13-6.42,7.93-6.45
		C-322.48,131.05-316.42,131.08-310.36,131.08z"/>
</g>
<g>
	<path d="M-238.19-109c-1.8-0.43-3.61-0.8-5.38-1.29c-15.14-4.23-25.53-17.59-26.1-33.38c-0.04-1.06-0.55-2.44-1.33-3.08
		c-6.31-5.16-7.39-12.43-2.67-19.03c0.2-0.28,0.38-0.58,0.59-0.92c-4.3-5.65-4.84-11.4-0.7-17.41c0.38-0.55,0.04-1.85-0.34-2.62
		c-5.25-10.9-10.26-21.94-15.94-32.61c-5.83-10.96-9.21-22.34-8.71-34.8c0.29-7.23,1.81-14.19,4.48-20.9
		c1.22-3.08,3.28-4.22,5.67-3.22c2.24,0.94,2.88,3.1,1.74,6.09c-6.39,16.75-4.99,32.86,3.59,48.57c4.79,8.76,9.11,17.77,13.56,26.71
		c1.29,2.6,2.3,5.35,3.35,7.84c3.53,0,6.87,0,10.56,0c0-1.29,0-2.32,0-3.36c0-15.67-0.04-31.34,0.06-47.01
		c0.01-1.77,0.49-3.7,1.31-5.27c4.08-7.85,8.38-15.57,12.51-23.39c1.51-2.86,3.47-4.98,6.89-5.01c3.41-0.03,5.42,2.06,6.94,4.92
		c4.18,7.89,8.51,15.7,12.64,23.62c0.78,1.49,1.22,3.34,1.23,5.03c0.09,15.67,0.05,31.34,0.05,47.01c0,1.04,0,2.08,0,3.42
		c3.58,0,6.9,0,10.56,0c1.01-2.34,2.03-5.06,3.32-7.65c4.86-9.73,9.71-19.46,14.73-29.1c14.82-28.47,2.76-63.62-26.46-76.88
		c-22.05-10.01-48.27-4.47-64.29,13.57c-0.41,0.46-0.8,0.96-1.25,1.38c-1.75,1.62-3.88,1.73-5.5,0.32
		c-1.69-1.47-1.89-3.77-0.31-5.68c4.43-5.38,9.67-9.85,15.64-13.43c38.15-22.91,87.79-0.21,95.52,43.65
		c2.52,14.27,0.32,27.75-6.24,40.67c-5.96,11.74-11.61,23.63-17.45,35.43c-0.71,1.44-0.55,2.45,0.31,3.82
		c3.55,5.66,2.68,11.1-0.81,15.62c1.08,3.34,2.37,6.16,2.85,9.12c0.6,3.67-1.01,6.86-3.37,9.73c-0.8,0.98-1.4,2.41-1.46,3.67
		c-0.26,5.92-1.42,11.57-4.22,16.84c-1.57,2.96-3.68,3.9-5.95,2.66c-2.2-1.2-2.64-3.34-1.17-6.2c2.01-3.91,3.17-8.02,3.2-12.67
		c-18.36,0-36.6,0-55.1,0c0.22,8.77,3.64,15.91,10.43,21.2c8.51,6.63,17.96,7.79,28.01,3.83c0.49-0.19,0.96-0.46,1.46-0.64
		c2.23-0.8,4.3-0.09,5.23,1.78c0.99,2,0.33,4.41-1.92,5.34c-3.08,1.28-6.34,2.14-9.52,3.18c-0.57,0.19-1.15,0.36-1.72,0.54
		C-232.52-109-235.35-109-238.19-109z M-235.06-152.43c9.29,0,18.57,0.02,27.85-0.01c3.39-0.01,5.5-1.78,5.73-4.62
		c0.25-3.07-1.51-5.05-5-5.62c-2.59-0.42-4.17-1.94-4.02-4.09c0.17-2.35,1.54-3.57,3.91-3.9c3.55-0.49,5.31-2.49,5.12-5.55
		c-0.18-2.95-2.31-4.71-5.89-4.77c-3.27-0.06-6.54-0.06-9.81-0.05c-15.39,0.05-30.77,0.08-46.16,0.2c-3.28,0.03-5.14,1.91-5.23,4.77
		c-0.1,2.87,1.66,4.85,4.75,5.39c2.92,0.51,4.47,1.87,4.29,4.06c-0.21,2.65-1.91,3.7-4.44,4c-3.03,0.36-4.77,2.57-4.59,5.45
		c0.18,2.86,2.28,4.71,5.63,4.72C-253.63-152.41-244.34-152.43-235.06-152.43z M-247.66-237.04c0,16.12,0,31.93,0,47.74
		c2.96,0,5.73,0,8.47,0c0-16.02,0-31.82,0-47.74C-242.1-237.04-244.8-237.04-247.66-237.04z M-230.83-237.02c0,16.12,0,31.9,0,47.77
		c2.94,0,5.7,0,8.47,0c0-16.05,0-31.9,0-47.77C-225.27-237.02-227.97-237.02-230.83-237.02z M-244.85-245.32c6.66,0,13.12,0,19.64,0
		c-2.07-5.88-2.07-5.88-7.74-5.88c-1.24,0-2.52,0.21-3.71-0.04c-4.39-0.9-6.74,1.21-7.99,5.12
		C-244.7-245.95-244.74-245.78-244.85-245.32z M-235.01-264.06c-0.98,1.85-1.69,3.17-2.49,4.67c1.86,0,3.26,0,5.02,0
		C-233.34-260.99-234.03-262.27-235.01-264.06z"/>
	<path d="M-278.35-317.5c-0.76,4.52-2.71,7.74-6.55,9.56c-3.93,1.86-8.02,1.66-11.16-1.34c-7.86-7.51-15.58-15.19-23.07-23.06
		c-3.74-3.94-3.2-10.12,0.58-13.97c3.88-3.96,10.12-4.62,14.15-0.81c7.89,7.48,15.55,15.21,23.05,23.08
		C-279.79-322.39-279.32-319.7-278.35-317.5z M-286.92-318c-0.32-0.45-0.81-1.37-1.51-2.08c-4.46-4.52-8.97-9-13.46-13.49
		c-2.31-2.31-4.61-4.62-6.93-6.92c-1.23-1.22-2.62-1.58-3.95-0.24c-1.33,1.34-0.94,2.71,0.27,3.95c0.31,0.32,0.62,0.63,0.93,0.94
		c6.36,6.37,12.73,12.73,19.1,19.09c0.56,0.56,1.11,1.18,1.79,1.54C-288.92-314.26-286.95-315.46-286.92-318z"/>
	<path d="M-191.15-318.98c0.62-1.18,1.4-3.96,3.16-5.81c7-7.37,14.24-14.52,21.52-21.63c4.34-4.24,10.62-4.18,14.8-0.12
		c4.24,4.12,4.45,10.6,0.17,15c-7.16,7.35-14.42,14.6-21.77,21.75c-3.28,3.19-7.36,3.83-11.55,1.99
		C-188.92-309.61-190.97-312.96-191.15-318.98z M-159.52-341.55c-0.42,0.28-1.23,0.66-1.83,1.26c-6.89,6.84-13.75,13.7-20.59,20.59
		c-1.58,1.59-1.56,3.95,0.12,4.35c1.16,0.28,2.99-0.24,3.86-1.08c6.73-6.5,13.29-13.16,19.9-19.78c0.49-0.49,1.01-1.02,1.32-1.64
		C-155.88-339.56-157.22-341.62-159.52-341.55z"/>
	<path d="M-224.39-355.18c0,4.86,0.03,9.73-0.01,14.59c-0.05,6.48-4.53,11.15-10.63,11.14c-6.09-0.01-10.54-4.69-10.56-11.2
		c-0.03-9.73-0.04-19.46,0-29.18c0.02-6.45,4.58-11.18,10.63-11.17c6.05,0.02,10.52,4.74,10.57,11.23
		C-224.37-364.91-224.39-360.04-224.39-355.18z M-232.36-355.24c0-4.68-0.02-9.36,0.01-14.04c0.01-1.97-0.41-3.73-2.75-3.67
		c-2.15,0.05-2.55,1.74-2.55,3.6c0.02,9.45,0.02,18.89,0,28.34c0,1.86,0.41,3.51,2.61,3.53c2.19,0.02,2.69-1.58,2.68-3.46
		C-232.38-345.71-232.36-350.48-232.36-355.24z"/>
	<path d="M-330.49-252.42c-4.95,0-9.9,0.03-14.86-0.01c-6.02-0.05-10.63-4.39-10.81-10.11c-0.18-5.94,4.1-10.86,10.19-10.99
		c10.34-0.22,20.69-0.21,31.04-0.01c6.08,0.12,10.5,5.06,10.31,10.91c-0.18,5.85-4.81,10.16-11.02,10.2
		C-320.58-252.4-325.54-252.42-330.49-252.42z M-330.36-260.39c4.68,0,9.36-0.03,14.04,0.01c1.97,0.02,3.74-0.35,3.67-2.71
		c-0.06-2.15-1.76-2.58-3.61-2.58c-9.45,0.01-18.89,0.01-28.34,0.01c-1.85,0-3.5,0.44-3.53,2.64c-0.03,2.23,1.58,2.65,3.47,2.63
		C-339.9-260.41-335.13-260.39-330.36-260.39z"/>
	<path d="M-139.55-252.42c-4.95,0-9.9,0.03-14.86-0.01c-6.18-0.04-10.83-4.39-10.99-10.23c-0.16-5.93,4.4-10.82,10.61-10.91
		c10.08-0.15,20.16-0.14,30.24-0.01c6.29,0.08,10.78,4.79,10.69,10.8c-0.09,5.97-4.74,10.32-11.11,10.35
		C-129.82-252.4-134.68-252.42-139.55-252.42z M-139.77-260.39c4.86,0,9.71-0.02,14.57,0.01c1.8,0.01,3.29-0.47,3.33-2.51
		c0.05-2.19-1.53-2.76-3.41-2.76c-9.53,0-19.07,0-28.6,0c-1.88,0-3.5,0.55-3.47,2.71c0.02,2.18,1.67,2.59,3.55,2.57
		C-149.13-260.42-144.45-260.39-139.77-260.39z"/>
</g>
<g>
	<path d="M-129.61-168.45h3.76c1,0,1.96-0.4,2.66-1.1c0.71-0.71,1.1-1.66,1.1-2.66v-15.06c0-1-0.4-1.96-1.1-2.66
		c-0.71-0.71-1.66-1.1-2.66-1.1h-15.06c-2.08,0-3.76,1.69-3.76,3.76v3.76h-75.28v-7.53c0-1-0.4-1.96-1.1-2.66s-1.66-1.1-2.66-1.1
		h-22.58c-2.08,0-3.76,1.69-3.76,3.76v7.53h-75.28v-3.76c0-1-0.4-1.96-1.1-2.66c-0.71-0.71-1.66-1.1-2.66-1.1h-15.06
		c-2.08,0-3.76,1.69-3.76,3.76v15.06c0,1,0.4,1.96,1.1,2.66c0.71,0.71,1.66,1.1,2.66,1.1h3.76V8.45h-3.76
		c-2.08,0-3.76,1.69-3.76,3.76v15.06c0,1,0.4,1.96,1.1,2.66c0.71,0.71,1.66,1.1,2.66,1.1h15.06c1,0,1.96-0.4,2.66-1.1
		s1.1-1.66,1.1-2.66V23.5h75.28v7.53c0,1,0.4,1.96,1.1,2.66c0.71,0.71,1.66,1.1,2.66,1.1h22.58c1,0,1.96-0.4,2.66-1.1
		c0.71-0.71,1.1-1.66,1.1-2.66V23.5h75.28v3.76c0,1,0.4,1.96,1.1,2.66s1.66,1.1,2.66,1.1h15.06c1,0,1.96-0.4,2.66-1.1
		c0.71-0.71,1.1-1.66,1.1-2.66V12.21c0-1-0.4-1.96-1.1-2.66c-0.71-0.71-1.66-1.1-2.66-1.1h-3.76V-168.45z M-144.67-175.98v3.76
		c0,1,0.4,1.96,1.1,2.66c0.71,0.71,1.66,1.1,2.66,1.1h3.76v49.94c-5.34-13.02-13.26-24.82-23.28-34.69
		c-10.02-9.88-21.93-17.62-35.02-22.78L-144.67-175.98z M-242.53-179.1v-8.17h15.06v15.06h-15.06V-179.1z M-340.39-183.5h7.53v7.53
		h-7.53V-183.5z M-332.86-168.45h3.76c1,0,1.96-0.4,2.66-1.1s1.1-1.66,1.1-2.66v-3.76h50.77c-13.09,5.15-25.01,12.9-35.03,22.77
		c-10.02,9.88-17.94,21.68-23.27,34.7L-332.86-168.45z M-332.86,23.5h-7.53v-7.53h7.53V23.5z M-329.09,8.45h-3.76v-49.98
		c5.34,13.04,13.27,24.86,23.31,34.74c10.04,9.88,21.98,17.63,35.1,22.77h-50.89v-3.76c0-1-0.4-1.96-1.1-2.66
		C-327.14,8.85-328.1,8.45-329.09,8.45L-329.09,8.45z M-246.29,4.68c-2.08,0-3.76,1.69-3.76,3.76v6.36
		C-273,11.7-294.03,0.38-309.26-17.05c-15.23-17.43-23.62-39.8-23.62-62.95s8.39-45.51,23.62-62.95
		c15.23-17.43,36.27-28.75,59.21-31.86v6.36c0,1,0.4,1.96,1.1,2.66c0.71,0.71,1.66,1.1,2.66,1.1h22.58c1,0,1.96-0.4,2.66-1.1
		c0.71-0.71,1.1-1.66,1.1-2.66v-6.36c22.88,3.25,43.82,14.61,59.02,32.02c15.2,17.4,23.64,39.69,23.78,62.79
		c0.02,15.8-3.92,31.35-11.45,45.23c-7.53,13.88-18.43,25.66-31.68,34.26l-15.06-40.8c-1.34-3.98-1.53-8.25-0.55-12.33
		c0.98-4.08,3.08-7.8,6.08-10.74c0.7-0.77,1.06-1.79,0.98-2.82c-0.09-1.04-0.61-1.99-1.43-2.63l-64.17-51.15
		c-1.41-4.45-0.76-9.29,1.77-13.21c4.1-5.19,13.66-7.11,27.59-5.53c13.93,1.58,23.64-0.56,28.83-6.32h0
		c3.19-3.45,4.58-8.2,3.76-12.83l-7.53,1.66v0c0.31,2.22-0.34,4.47-1.81,6.17c-3.39,3.76-11.29,5.08-22.58,3.76
		c-16.9-1.92-28.45,0.9-34.33,8.39c-4.1,5.93-5.21,13.42-3.01,20.29l-16.07,80.85c-0.21,1.03,0.03,2.11,0.65,2.96
		c0.62,0.85,1.57,1.4,2.62,1.52c4.26,0.17,8.37,1.56,11.86,4.01c3.48,2.45,6.19,5.85,7.79,9.8l8.84,24.16L-246.29,4.68z
		 M-247.8-22.07c-3.65-9.41-11.93-16.24-21.87-18.03l13.02-64.81l13.32,36.43c-2.39,1.74-4.15,4.2-5.01,7.03
		c-0.86,2.83-0.78,5.85,0.23,8.63c1.26,3.35,3.81,6.06,7.08,7.53c1.79,0.85,3.74,1.29,5.72,1.28c3.71,0.02,7.26-1.47,9.84-4.13
		c2.58-2.66,3.97-6.26,3.84-9.96c-0.13-3.7-1.76-7.2-4.52-9.67c-2.76-2.48-6.41-3.72-10.1-3.44l-13.32-36.43l51.83,41.33
		c-6.07,7.84-7.77,18.22-4.52,27.59l4.37,11.97l-45.54,16.64L-247.8-22.07z M-237.41-63.06c0.68-0.25,1.39-0.38,2.11-0.38
		c2.09,0,4.03,1.07,5.16,2.82c1.13,1.76,1.28,3.97,0.41,5.87c-0.7,1.47-1.94,2.6-3.46,3.16c-1.49,0.62-3.17,0.62-4.67,0
		c-1.6-0.77-2.76-2.22-3.16-3.95C-242-58.61-240.41-61.9-237.41-63.06L-237.41-63.06z M-227.47,19.1v8.17h-15.06V12.21h15.06V19.1z
		 M-202.44,10.52l-1.09,0.34c-2.3,0.79-4.63,1.43-6.96,2.03l-1.51,0.38c-2.51,0.6-5.02,1.09-7.53,1.47h-0.38V8.45
		c0-1-0.4-1.96-1.1-2.66c-0.71-0.71-1.66-1.1-2.66-1.1h-14.34l-2.82-7.75l45.54-16.67l8.47,23.22l-0.64,0.34
		c-2.18,1.2-4.4,2.33-6.66,3.35l-0.87,0.38l-0.45,0.23c-2.3,0.98-4.59,1.88-6.93,2.71L-202.44,10.52z M-144.67,12.21v3.76h-50.85
		c2.26-0.9,4.48-1.92,6.66-2.97l1.73-0.87c2.26-1.17,4.48-2.33,6.66-3.76c2.26-1.35,4.44-2.82,6.59-4.29l1.99-1.47
		c1.43-1.09,2.86-2.18,4.25-3.31l2.11-1.77c1.35-1.17,2.71-2.37,3.99-3.76l1.69-1.62c1.81-1.81,3.54-3.65,5.19-5.53l0.45-0.56
		c1.51-1.77,2.94-3.54,4.29-5.38c0.49-0.64,0.94-1.32,1.39-1.99c1.02-1.43,1.99-2.86,2.94-4.33l1.35-2.22
		c0.94-1.58,1.81-3.16,2.63-4.74c0.34-0.64,0.72-1.28,1.02-1.92c1.13-2.26,2.18-4.52,3.12-6.85l0,49.83h-3.46
		C-142.99,8.45-144.67,10.13-144.67,12.21L-144.67,12.21z M-129.62,23.5h-7.53v-7.53h7.53V23.5z M-137.14-175.98v-7.53h7.53v7.53
		H-137.14z"/>
</g>
<g>
	<path d="M-329.31,660.99c-2.93-1.31-3.89-3.66-3.84-6.74c0.09-5.75-0.08-11.51,0.1-17.26c0.05-1.66,0.51-3.76,1.59-4.81
		c1.05-1.02,3.19-1.39,4.78-1.26c1.97,0.16,3.34,1.75,3.48,3.81c0.21,3.2,0.19,6.42,0.24,9.63c0.03,2.03,0.01,4.05,0.01,6.27
		c50.79,0,101.41,0,152.2,0c0-32.66,0-65.28,0-98.1c-50.61,0-101.24,0-152.2,0c0,0.99,0,1.98,0,2.96c0,12.44,0,24.87,0,37.31
		c0,4.8-1.81,7.3-5.19,7.22c-3.3-0.08-4.96-2.47-4.97-7.18c-0.01-3.89,0-7.77,0-12.08c-1.12,0-2.08,0.01-3.05,0
		c-7.27-0.07-14.59,0.31-21.81-0.32c-9.79-0.85-16.71-7.66-18.66-17.28c-0.08-0.41-0.27-0.79-0.4-1.19c0-31.48,0-62.97,0-94.45
		c0.14-0.39,0.33-0.78,0.41-1.19c1.39-6.9,5.05-12.25,11.49-15.13c3.53-1.58,7.52-2.13,11.72-3.26c0-0.37,0-1.27,0-2.18
		c0-8.12-0.01-16.25,0-24.37c0.01-5.63,1.6-7.19,7.28-7.19c4.29,0,8.58,0,13.04,0c0-2.53-0.04-4.73,0.01-6.92
		c0.09-4.48,1.91-6.27,6.41-6.27c53.32-0.01,106.64-0.01,159.96,0c4.34,0,6.19,1.82,6.29,6.13c0.06,2.26,0.01,4.53,0.01,7.06
		c4.64,0,9.02,0,13.4,0c5.17,0.01,6.89,1.68,6.91,6.8c0.02,8.29,0,16.59,0.01,24.88c0,0.9,0.08,1.79,0.12,2.67
		c0.48,0.09,0.72,0.18,0.96,0.18c13.24,0.1,22.46,10.26,22.07,23.53c-0.3,10.57-0.06,21.15-0.06,31.73c0,17.85,0,35.71,0,53.56
		c-0.01,14.22-8.93,23.18-23.08,23.2c-5.92,0.01-11.85,0-17.77,0c-0.8,0-1.61,0-2.57,0c0,1.49,0,2.58,0,3.68
		c0,23.19-0.03,46.37,0.03,69.56c0.01,3.15-0.79,5.64-3.84,7C-219.27,660.99-274.29,660.99-329.31,660.99z M-140.12,570.31
		c0.5,0.14,0.73,0.26,0.97,0.27c6.99,0.28,11.96-4.71,11.97-12.13c0.02-28.77,0.01-57.54,0.01-86.31c0-8.96-4.27-13.24-13.19-13.24
		c-71.09,0-142.18,0-213.27,0c-8.97,0-13.27,4.26-13.27,13.16c0,28.51,0,57.03,0,85.54c0,0.93-0.02,1.87,0.07,2.79
		c0.63,6.67,7.03,11.42,13.38,9.78c0-6.81,0-13.66,0-20.51c0-6.04,1.47-7.51,7.47-7.51c66.1,0,132.19,0,198.29,0
		c0.59,0,1.19-0.02,1.78,0c3.7,0.12,5.58,1.91,5.75,5.65c0.11,2.53,0.03,5.08,0.03,7.61C-140.12,560.41-140.12,565.38-140.12,570.31
		z M-170.74,448.62c0-12.54,0-24.86,0-37.28c-50.78,0-101.41,0-152.08,0c0,12.5,0,24.82,0,37.28
		C-272.12,448.62-221.55,448.62-170.74,448.62z M-343.15,424.51c0,8.12,0,16.04,0,24.07c3.37,0,6.61,0,9.9,0c0-8.09,0-16.01,0-24.07
		C-336.55,424.51-339.72,424.51-343.15,424.51z M-160.29,448.56c3.38,0,6.62,0,9.86,0c0-8.11,0-16.02,0-24c-3.38,0-6.62,0-9.86,0
		C-160.29,432.67-160.29,440.58-160.29,448.56z M-343.13,570.42c3.38,0,6.61,0,9.86,0c0-6.07,0-11.95,0-17.9c-3.38,0-6.61,0-9.86,0
		C-343.13,558.59-343.13,564.47-343.13,570.42z M-160.29,570.48c3.36,0,6.53,0,9.83,0c0-6.06,0-11.99,0-18.03c-3.34,0-6.51,0-9.83,0
		C-160.29,558.46-160.29,564.33-160.29,570.48z"/>
	<path d="M-241.48,599.45c0-6.25-0.01-12.51,0-18.76c0.01-4.8,1.77-6.7,6.63-6.47c4.86,0.23,9.85,0.3,14.5,1.52
		c8.69,2.27,15.15,10.94,16.06,19.87c0.78,7.63-0.41,14.62-5.48,20.65c-4.75,5.64-10.91,8.34-18.18,8.65
		c-2.62,0.11-5.24,0.08-7.86,0.02c-3.68-0.09-5.63-2.02-5.66-5.7C-241.52,612.64-241.48,606.04-241.48,599.45z M-231.2,614.69
		c6.25,0.52,11.55-1.04,14.77-6.5c3.38-5.73,3.37-11.88-0.17-17.55c-3.28-5.27-8.5-6.79-14.6-6.2
		C-231.2,594.51-231.2,604.45-231.2,614.69z"/>
	<path d="M-279.29,619.49c-0.52,1.07-0.92,2.09-1.49,3.02c-1.23,2.01-3.57,2.83-5.71,2.12c-2.29-0.77-3.67-2.86-3.41-5.28
		c0.08-0.75,0.25-1.5,0.49-2.22c4.31-12.87,8.63-25.75,12.98-38.61c1.27-3.75,4.54-5.44,7.39-3.67c1.17,0.73,2.23,2.14,2.68,3.46
		c4.49,12.99,8.86,26.03,13.22,39.07c1.14,3.42,0.07,6.03-2.76,7.16c-2.75,1.1-5.15-0.23-6.8-3.55c-0.32-0.65-1.24-1.42-1.9-1.43
		C-269.48,619.44-274.38,619.49-279.29,619.49z M-266.61,609.2c-1.54-4.57-3-8.93-4.7-14.01c-1.72,5.13-3.18,9.49-4.69,14.01
		C-272.81,609.2-269.88,609.2-266.61,609.2z"/>
	<path d="M-323.08,615.18c0.06,2.74-2.14,5.07-4.85,5.15c-2.69,0.08-5.02-2.19-5.08-4.93c-0.06-2.74,2.14-5.07,4.85-5.15
		C-325.47,610.18-323.13,612.44-323.08,615.18z"/>
	<path d="M-309.87,498.62c0.04,9.51-7.68,17.26-17.21,17.25c-9.51-0.01-17.3-7.83-17.21-17.27c0.09-9.41,7.68-17.03,17.11-17.17
		C-317.81,481.28-309.91,489.12-309.87,498.62z M-320.02,498.69c0.01-3.9-3.16-7.11-7.03-7.12c-3.86-0.01-7.07,3.2-7.09,7.09
		c-0.01,3.92,3.12,7.05,7.05,7.06C-323.13,505.72-320.03,502.64-320.02,498.69z"/>
	<path d="M-280.27,515.86c-9.54-0.07-17.19-7.83-17.09-17.37c0.1-9.39,7.83-17.07,17.19-17.08c9.4-0.01,17.34,7.94,17.29,17.3
		C-262.93,508.18-270.8,515.93-280.27,515.86z M-287.2,498.42c-0.11,4,2.86,7.17,6.8,7.28c3.93,0.11,7.19-2.91,7.36-6.79
		c0.16-3.8-2.99-7.16-6.87-7.33C-283.78,491.42-287.1,494.53-287.2,498.42z"/>
	<path d="M-233.83,515.86c-9.5,0-17.3-7.79-17.26-17.25c0.05-9.43,8.04-17.35,17.37-17.19c9.42,0.16,17.07,7.84,17.13,17.18
		C-216.53,508.06-224.32,515.86-233.83,515.86z M-226.74,498.68c0-3.88-3.21-7.09-7.08-7.1c-3.87-0.01-7.1,3.21-7.11,7.08
		c-0.01,3.9,3.16,7.05,7.08,7.05C-229.92,505.71-226.74,502.57-226.74,498.68z"/>
	<path d="M-183.15,503.65c-4.15,0-8.29,0.04-12.44-0.01c-3.39-0.05-5.6-2.01-5.7-4.88c-0.09-2.81,2.12-5.16,5.41-5.2
		c8.55-0.11,17.09-0.11,25.64,0c3.3,0.04,5.52,2.35,5.45,5.17c-0.07,2.88-2.29,4.87-5.66,4.92
		C-174.69,503.69-178.92,503.65-183.15,503.65z"/>
	<path d="M-144.48,498.67c-0.04,2.69-2.39,4.97-5.1,4.93c-2.71-0.03-5.02-2.38-4.97-5.06c0.04-2.67,2.45-5.02,5.1-4.98
		C-146.8,493.61-144.44,496.03-144.48,498.67z"/>
</g>
<g>
	<path d="M574.47,67.79c-13.61,0-24.68,11.07-24.68,24.68s11.07,24.68,24.68,24.68c13.61,0,24.68-11.07,24.68-24.68
		S588.08,67.79,574.47,67.79z M574.47,108.92c-9.07,0-16.45-7.38-16.45-16.45s7.38-16.45,16.45-16.45s16.45,7.38,16.45,16.45
		S583.54,108.92,574.47,108.92z"/>
	<path d="M574.47,51.34c-22.68,0-41.13,18.45-41.13,41.13s18.45,41.13,41.13,41.13s41.13-18.45,41.13-41.13
		S597.15,51.34,574.47,51.34z M574.47,125.37c-18.14,0-32.9-14.76-32.9-32.9s14.76-32.9,32.9-32.9s32.9,14.76,32.9,32.9
		S592.61,125.37,574.47,125.37z"/>
	<path d="M631.42,68.81c-1.79-4.3-0.84-9.18,2.42-12.44l4.62-4.61l-23.27-23.27l-4.61,4.61c-3.27,3.26-8.14,4.22-12.64,2.34
		c-4.26-1.76-7.02-5.87-7.02-10.49v-6.51h-32.9v6.51c0,4.61-2.75,8.73-7.21,10.57c-4.3,1.79-9.18,0.84-12.45-2.43l-4.61-4.61
		l-23.27,23.27l4.61,4.6c3.27,3.27,4.22,8.15,2.34,12.64c-1.76,4.26-5.88,7.01-10.49,7.01h-6.51v32.9h6.51
		c4.61,0,8.73,2.75,10.57,7.21c1.79,4.3,0.84,9.18-2.42,12.44l-4.62,4.61l23.27,23.27l4.6-4.61c3.27-3.27,8.14-4.21,12.64-2.34
		c4.26,1.76,7.02,5.88,7.02,10.49v6.51h32.9v-6.51c0-4.61,2.75-8.73,7.21-10.57c4.3-1.78,9.18-0.84,12.44,2.42l4.61,4.62
		l23.27-23.27l-4.61-4.6c-3.27-3.27-4.22-8.15-2.34-12.64c1.76-4.26,5.88-7.02,10.49-7.02h6.51v-32.9h-6.51
		C637.38,76.02,633.26,73.26,631.42,68.81L631.42,68.81z M640.27,100.77c-7.25,0.63-13.57,5.22-16.45,12.2
		c-2.86,6.85-1.65,14.59,3.04,20.17l-11.73,11.74c-5.58-4.69-13.33-5.89-20.34-2.97c-6.82,2.82-11.4,9.13-12.03,16.38h-16.59
		c-0.63-7.25-5.22-13.57-12.2-16.45c-6.85-2.86-14.59-1.64-20.17,3.04l-11.74-11.73c4.69-5.58,5.9-13.33,2.97-20.34
		c-2.82-6.82-9.13-11.4-16.38-12.03V84.17c7.25-0.63,13.57-5.22,16.45-12.2c2.86-6.85,1.65-14.59-3.04-20.17l11.74-11.74
		c5.59,4.69,13.33,5.89,20.34,2.97c6.82-2.82,11.4-9.13,12.03-16.38h16.59c0.62,7.25,5.22,13.57,12.2,16.45
		c6.85,2.86,14.58,1.65,20.17-3.05l11.74,11.74c-4.69,5.58-5.9,13.33-2.97,20.34c2.82,6.82,9.13,11.4,16.38,12.03L640.27,100.77z"/>
	<path d="M578.58,145.94c0,2.27-1.84,4.11-4.11,4.11s-4.11-1.84-4.11-4.11c0-2.27,1.84-4.11,4.11-4.11S578.58,143.66,578.58,145.94"
		/>
	<path d="M611.49,125.37c-1.05,0-2.11,0.4-2.91,1.2c-1.61,1.61-1.61,4.21,0,5.81c0.8,0.8,1.86,1.21,2.91,1.21
		c1.05,0,2.11-0.4,2.91-1.2c1.61-1.61,1.61-4.21,0-5.81C613.59,125.77,612.54,125.37,611.49,125.37z"/>
	<path d="M632.05,92.47c0,2.27-1.84,4.11-4.11,4.11s-4.11-1.84-4.11-4.11c0-2.27,1.84-4.11,4.11-4.11S632.05,90.2,632.05,92.47"/>
	<path d="M611.49,51.34c-1.05,0-2.11,0.4-2.91,1.2c-1.61,1.61-1.61,4.21,0,5.81c0.8,0.8,1.86,1.21,2.91,1.21
		c1.05,0,2.11-0.4,2.91-1.2c1.61-1.61,1.61-4.21,0-5.81C613.59,51.74,612.54,51.34,611.49,51.34z"/>
	<path d="M578.58,39c0,2.27-1.84,4.11-4.11,4.11s-4.11-1.84-4.11-4.11s1.84-4.11,4.11-4.11S578.58,36.73,578.58,39"/>
	<path d="M537.45,59.56c1.05,0,2.11-0.4,2.91-1.2c1.61-1.61,1.61-4.21,0-5.81c-0.8-0.8-1.86-1.21-2.91-1.21s-2.11,0.4-2.91,1.2
		c-1.61,1.61-1.61,4.21,0,5.81C535.35,59.16,536.4,59.56,537.45,59.56z"/>
	<path d="M525.11,92.47c0,2.27-1.84,4.11-4.11,4.11s-4.11-1.84-4.11-4.11c0-2.27,1.84-4.11,4.11-4.11S525.11,90.2,525.11,92.47"/>
	<path d="M537.45,125.37c-1.05,0-2.11,0.4-2.91,1.2c-1.61,1.61-1.61,4.21,0,5.81c0.8,0.8,1.86,1.21,2.91,1.21s2.11-0.4,2.91-1.2
		c1.61-1.61,1.61-4.21,0-5.81C539.56,125.77,538.51,125.37,537.45,125.37z"/>
	<path d="M640.28-72.05h-25.59c-1.08-2.39-3.06-4.34-5.61-5.3l-28.36-10.63c-0.93-0.35-1.9-0.52-2.89-0.52H471.64
		c-9.93,0-18.24,7.08-20.15,16.45h-37.43c-11.34,0-20.56,9.22-20.56,20.56s9.22,20.56,20.56,20.56h61.69c4.54,0,8.23,3.69,8.23,8.23
		s-3.69,8.23-8.23,8.23h-65.81c-9.07,0-16.45,7.38-16.45,16.45s7.38,16.45,16.45,16.45h20.56c2.27,0,4.11,1.85,4.11,4.11v20.56
		h-4.11c-20.41,0-37.02,16.6-37.02,37.02v49.35c0,20.41,16.6,37.02,37.02,37.02h16.45c20.41,0,37.02-16.6,37.02-37.02V80.13
		c0-20.41-16.6-37.02-37.02-37.02h-4.11V22.55c0-6.8-5.54-12.34-12.34-12.34h-20.56c-4.54,0-8.23-3.69-8.23-8.23
		s3.69-8.23,8.23-8.23h65.81c9.07,0,16.45-7.38,16.45-16.45s-7.38-16.45-16.45-16.45h-61.69c-6.8,0-12.34-5.54-12.34-12.34
		s5.54-12.34,12.34-12.34h37.43c1.91,9.37,10.22,16.45,20.15,16.45h28.79V67.79h8.23V-47.37h8.23v24.68h57.58v-24.68h3.36
		c0.99,0,1.96-0.17,2.89-0.52l28.35-10.63c2.54-0.96,4.53-2.9,5.61-5.3h25.59V67.79h8.23V-63.82
		C648.5-68.36,644.81-72.05,640.28-72.05L640.28-72.05z M434.63,76.02V51.34h8.23v24.68H434.63z M426.41,51.67v24.35
		c0,4.54,3.69,8.23,8.23,8.23v8.23h-32.9V80.13C401.73,65.66,412.48,53.67,426.41,51.67z M446.97,158.27h-16.45
		c-15.87,0-28.79-12.92-28.79-28.79v-28.79h74.03v28.79C475.76,145.35,462.84,158.27,446.97,158.27z M475.76,80.13v12.34h-32.9
		v-8.23c4.54,0,8.23-3.69,8.23-8.23V51.67C465.01,53.67,475.76,65.65,475.76,80.13z M574.47-72.05h-74.03v-8.23h74.03V-72.05z
		 M492.21-55.6h-8.23v-24.68h8.23V-55.6z M500.44-63.82h74.03v8.23h-74.03V-63.82z M582.7-78.45l8.23,3.08v14.86l-8.23,3.08V-78.45z
		 M459.31-67.94c0-6.8,5.54-12.34,12.34-12.34h4.11v24.68h-4.11C464.84-55.6,459.31-61.13,459.31-67.94z M566.24-30.92h-41.13
		v-16.45h41.13V-30.92z M606.19-66.23l-7.05,2.64v-8.7l7.05,2.64c0.71,0.27,1.18,0.95,1.18,1.71S606.9-66.5,606.19-66.23z"/>
	<path d="M516.89-14.47h57.58v8.23h-57.58V-14.47z"/>
	<path d="M516.89,1.98h57.58v8.23h-57.58V1.98z"/>
	<path d="M582.7,1.98h8.23v8.23h-8.23V1.98z"/>
	<path d="M599.15,1.98h8.23v8.23h-8.23V1.98z"/>
	<path d="M615.6,1.98h8.23v8.23h-8.23V1.98z"/>
	<path d="M582.7-14.47h49.35v8.23H582.7V-14.47z"/>
	<path d="M582.7-30.92h49.35v8.23H582.7V-30.92z"/>
	<path d="M590.92-47.37h41.13v8.23h-41.13V-47.37z"/>
</g>
<g>
	<path class="st0" d="M7.58,58.19c1.19-5.23,3.18-10.01,7.32-13.7c4.77-4.24,10.41-5.75,16.65-5.75
		c62.12,0.02,124.23,0.01,186.35,0.01c17.06,0,34.12-0.03,51.18,0.01c9.4,0.02,16.82,3.81,20.92,12.47
		c1.49,3.15,2.31,6.94,2.32,10.44c0.14,58.88,0.13,117.76,0.08,176.65c-0.01,13.65-9.62,22.91-23.59,22.91
		c-46.36,0.02-92.71,0.01-139.07,0.01c-32.82,0-65.64-0.01-98.46,0.01c-8,0.01-14.88-2.56-19.41-9.34c-2-2.99-2.89-6.72-4.28-10.11
		C7.58,180.6,7.58,119.4,7.58,58.19z M284.06,83c-89.56,0-178.77,0-268.12,0c0,1.24,0,2.26,0,3.27c0,50.26,0,100.52,0,150.78
		c0,10.48,5.41,15.84,15.99,15.84c78.72,0,157.43,0,236.15,0c10.69,0,15.99-5.34,15.99-16.12c0-50.17,0-100.34,0-150.5
		C284.06,85.25,284.06,84.24,284.06,83z M283.92,74.27c0-5.17,0.19-10.16-0.07-15.13c-0.17-3.33-1.84-6.18-4.35-8.44
		c-3.16-2.84-6.94-3.61-11.07-3.61c-78.97,0.03-157.95,0.02-236.92,0.03c-1.38,0-2.79,0.05-4.15,0.29
		c-5.87,1.02-10.52,5.33-11.1,11.25c-0.51,5.11-0.11,10.31-0.11,15.62C105.35,74.27,194.49,74.27,283.92,74.27z"/>
	<path class="st0" d="M131.85,163.53c3.3,0,6.22,0,9.48,0c0-1.16,0-2.15,0-3.15c0-10.11-0.01-20.21,0-30.32
		c0.01-10.33,4.96-15.4,15.26-15.46c1.96-0.01,2.66-0.49,2.91-2.56c0.65-5.3,5.15-9.67,10.43-10.51c1.55-0.24,3.14-0.34,4.7-0.34
		c25.22-0.02,50.43-0.02,75.65-0.01c10.27,0,15.38,5.12,15.38,15.38c0,2.13,0.05,4.27-0.02,6.4c-0.23,7.63-5.27,12.95-12.89,13.26
		c-5.55,0.23-11.12,0.08-16.68,0.08c-20.77,0-41.53,0.02-62.3-0.01c-7.35-0.01-12.23-3.34-14.03-9.44c-0.03-0.09-0.11-0.17-0.1-0.26
		c0.2-3.5-1.78-4.05-4.71-3.68c-3.3,0.41-5.12,1.82-5.15,5.02c-0.12,11.31-0.09,22.62,0,33.93c0,0.61,1.02,1.37,1.73,1.76
		c0.49,0.28,1.27,0.07,1.92,0.06c1.67-0.02,3.71,0.51,4.89-0.26c1.05-0.69,1.08-2.86,1.66-4.34c1.94-5,5.5-8,10.91-8.62
		c1.19-0.14,2.4-0.19,3.61-0.19c25.31-0.01,50.62,0.01,75.93-0.03c4.53-0.01,8.65,0.83,11.82,4.39c4.92,5.54,5.01,20.55,0.17,26.18
		c-2.8,3.26-6.45,4.59-10.61,4.6c-26.24,0.03-52.47,0.07-78.71-0.02c-7.77-0.03-12.01-3.9-13.79-11.79
		c-0.14-0.6-0.94-1.46-1.48-1.49c-2.57-0.16-5.15-0.07-7.92-0.07c-0.07,1.16-0.18,2.05-0.18,2.95c-0.01,10.29-0.02,20.58,0,30.88
		c0.01,5.53,2.58,7.74,8.08,6.81c0.6-0.1,1.39-1.07,1.52-1.74c1.37-7.27,6.04-11.5,13.4-11.52c26.51-0.07,53.03-0.08,79.54,0.01
		c7.99,0.03,13.25,5.55,13.4,13.61c0.05,2.41,0.03,4.82,0.01,7.23c-0.08,8.76-5.48,14.18-14.31,14.21
		c-13.63,0.05-27.26,0.01-40.88,0.01c-11.5,0-22.99,0-34.49,0c-10.93,0-14.49-2.72-17.05-13.19c-2.05-0.14-4.17-0.15-6.24-0.45
		c-6.22-0.89-10.87-5.41-11.09-11.67c-0.36-10.28-0.21-20.58-0.26-30.86c-0.01-1.94,0-3.87,0-6.05c-3.18,0-6.17,0-9.48,0
		c0,3.97,0.02,7.85,0,11.72c-0.05,9.58-5.22,14.8-14.79,14.81c-22.62,0.03-45.24,0.02-67.86,0c-9.67-0.01-14.88-5.3-14.89-15.03
		c-0.01-10.76-0.02-21.51,0-32.27c0.02-9.21,5.24-14.58,14.44-14.6c22.9-0.06,45.8-0.06,68.7,0c9.25,0.03,14.33,5.28,14.39,14.6
		C131.88,155.4,131.85,159.29,131.85,163.53z M83.22,190.47c11.22,0,22.44,0.01,33.66-0.01c4.99-0.01,6.59-1.55,6.6-6.39
		c0.02-10.85,0.03-21.7,0-32.55c-0.01-4.75-1.55-6.27-6.41-6.27c-22.62-0.02-45.25-0.02-67.87,0c-4.9,0-6.52,1.64-6.52,6.5
		c-0.01,10.57-0.01,21.14,0,31.71c0,5.44,1.52,7,6.89,7C60.78,190.48,72,190.47,83.22,190.47z M212.43,207.74
		c-12.98,0-25.95-0.02-38.93,0.01c-4.28,0.01-5.82,1.6-5.91,5.89c-0.04,1.76-0.01,3.52-0.01,5.28c0.01,5.85,1.37,7.23,7.17,7.23
		c22.8,0,45.6,0,68.4,0c2.87,0,5.75,0.07,8.62-0.02c3.67-0.12,5.42-1.9,5.53-5.54c0.07-2.13,0.02-4.26,0.01-6.4
		c-0.03-4.9-1.57-6.44-6.52-6.44C238.01,207.73,225.22,207.74,212.43,207.74z M212.41,127.96c12.7,0,25.39,0.01,38.09,0
		c5.33,0,6.81-1.47,6.82-6.72c0-1.39,0-2.78,0-4.17c0-6.23-1.29-7.53-7.48-7.53c-24.93,0-49.86,0-74.79,0
		c-0.93,0-1.86-0.04-2.78,0.08c-2.97,0.39-4.47,1.92-4.64,4.91c-0.12,2.22-0.06,4.45-0.05,6.67c0.02,5.39,1.36,6.76,6.73,6.77
		C187.01,127.97,199.71,127.96,212.41,127.96z M212.42,158.66c-3.99,0-7.97,0-11.95,0c-8.99,0-17.98-0.04-26.97,0.02
		c-4.3,0.03-5.83,1.61-5.9,5.9c-0.04,2.5-0.08,5.01,0.05,7.51c0.15,3.01,1.64,4.52,4.62,4.9c0.82,0.1,1.66,0.08,2.5,0.08
		c25.11,0,50.23,0,75.34,0c0.74,0,1.49,0.03,2.22-0.04c3.21-0.33,4.82-1.98,4.97-5.23c0.1-2.13,0.03-4.26,0.02-6.39
		c-0.01-5.26-1.49-6.73-6.81-6.74C237.81,158.65,225.12,158.66,212.42,158.66z"/>
	<path class="st0" d="M158.74,64.94c-27.34,0-54.68,0-82.01,0c-0.93,0-1.86,0.03-2.78-0.05c-2.42-0.21-3.76-1.69-3.85-3.98
		c-0.09-2.18,1.18-3.67,3.37-4.13c0.89-0.19,1.84-0.18,2.76-0.18c55.14-0.01,110.28-0.01,165.42,0c1.01,0,2.05,0.04,3.02,0.28
		c2.07,0.52,3.16,2.04,3.05,4.09c-0.11,2.16-1.37,3.62-3.64,3.89c-1.01,0.12-2.04,0.08-3.05,0.08
		C213.6,64.94,186.17,64.94,158.74,64.94z"/>
	<path class="st0" d="M265.9,64.91c-1.47,0-2.95,0.05-4.42-0.01c-2.36-0.11-3.83-1.39-4.06-3.72c-0.23-2.35,1.02-4.14,3.32-4.33
		c3.47-0.29,6.99-0.27,10.46,0.01c2.19,0.17,3.41,1.93,3.28,4.11c-0.13,2.29-1.5,3.75-3.88,3.91c-1.56,0.1-3.13,0.02-4.7,0.02
		C265.9,64.9,265.9,64.9,265.9,64.91z"/>
	<path class="st0" d="M29.54,64.9c-2.21-0.03-4.09-1.9-4.1-4.08c-0.01-2.12,1.94-4.11,4.06-4.17c2.27-0.06,4.27,1.98,4.2,4.27
		C33.65,63.12,31.76,64.92,29.54,64.9z"/>
	<path class="st0" d="M47.08,60.84c-0.02,2.22-1.84,4.04-4.07,4.06c-2.23,0.01-4.11-1.78-4.17-3.99c-0.06-2.23,2.01-4.31,4.25-4.24
		C45.27,56.72,47.09,58.62,47.08,60.84z"/>
	<path class="st0" d="M56.31,64.9c-2.21-0.02-4.09-1.88-4.11-4.07c-0.02-2.1,1.95-4.12,4.06-4.18c2.3-0.06,4.25,1.92,4.19,4.26
		C60.39,63.12,58.53,64.92,56.31,64.9z"/>
</g>
</svg>
