<?xml version="1.0" encoding="utf-8"?>
<!-- Generator: Adobe Illustrator 24.2.1, SVG Export Plug-In . SVG Version: 6.00 Build 0)  -->
<svg version="1.1" id="Layer_1" xmlns="http://www.w3.org/2000/svg" xmlns:xlink="http://www.w3.org/1999/xlink" x="0px" y="0px"
	 viewBox="0 0 600 600" style="enable-background:new 0 0 600 600;" xml:space="preserve">
<g>
	<path d="M319.6,9.4c1.7,8.9,4,17.8,4.8,26.8c0.7,8.1,0.4,16.6-1.2,24.6c-0.6,3.3-5.4,7.8-8.6,8.1c-3.1,0.3-9.3-4.1-9.4-6.7
		c-0.7-14.7-0.4-29.6,0.5-44.3c0.2-2.9,4.2-5.6,6.5-8.4C314.6,9.4,317.1,9.4,319.6,9.4z"/>
	<path d="M467.4,128.4c-8.4,0.2-13.4-8-9.1-14.9c7.2-11.9,14.9-23.6,23.5-34.6c2-2.6,9.3-3.3,12.7-1.8c2.4,1.1,4.5,8.8,2.9,11.4
		c-7.5,12.7-16,24.8-24.5,36.8C471.6,127.1,468.7,127.7,467.4,128.4z"/>
	<path d="M106,65.9c1.1,0.3,3.6,0.3,4.9,1.5c11,10,22.1,19.9,32.2,30.6c1.9,2,1,9.5-1.3,11.5c-2.4,2.2-9.5,2.9-11.8,1
		c-11.1-9.1-21.8-18.9-31.6-29.5C92.7,74.9,97,66.3,106,65.9z"/>
	<path d="M544.2,247.3c8.3,0.3,19.2-5.5,20.9,7.1c1.9,13.7-10.8,10.7-18.4,12.2c-9.3,1.8-18.9,3.3-28.3,2.8
		c-4.3-0.2-8.4-5.4-12.6-8.3c3.6-3.6,6.6-9.3,10.9-10.5C525.7,248.2,535.4,248.2,544.2,247.3z"/>
	<path d="M62.4,285.9c-6.2,0-12.6,1.1-18.4-0.4c-3.8-0.9-9.2-5.3-9.4-8.4c-0.2-3.1,4.8-9.1,8.1-9.5c13.4-1.7,27.1-2.5,40.7-2
		c3.6,0.1,7,6.1,10.4,9.4c-3.4,3.3-6.4,8.5-10.4,9.5c-6.6,1.6-13.9,0.4-20.9,0.4C62.4,285.3,62.4,285.6,62.4,285.9z"/>
	<g>
		<path d="M296.3,587.9c-18.3-4.8-33.1-14.6-42.7-31.2c-2.5-4.3-3.9-9.1-5.7-13.8c-2.8-7.5-1-16.7-12-20.6
			c-7.4-2.6-6.2-12.4,1.1-17.9c9.5-7.2,9.5-13.2-0.1-21.3c-6.1-5.1-7.7-12-1.6-16.6c7-5.3,4.2-10.6,2.8-16
			c-7-26.8-23.8-47.7-42-67.7c-28-30.7-48.4-65.3-54.5-107C128,182.1,191.5,90.3,296.7,88.8c59.9-0.9,111.1,20.5,145.7,70.4
			c40.9,59,38,121.3,2.8,182c-11.2,19.3-27.1,35.8-40.5,53.8c-7.7,10.4-15.3,20.9-22,32c-4.4,7.3-9.9,15.2-0.8,24.1
			c1.7,1.6-1.4,12.6-4.1,13.4c-10.5,3.2-8.4,10.5-8.3,17.5c17.1,8.4,17.1,11.4,2.8,25.4c-2.2,2.2,0,10,1.7,14.7
			c1.7,4.6,8.3,8.9,7.7,12.3c-0.8,3.8-7.3,6.4-11.4,9.5c-2.2,1.7-5.6,2.8-6.7,5c-10.1,21-27.3,32.8-49.1,38.9
			C308.4,587.9,302.3,587.9,296.3,587.9z M261.1,460.4c29.2-4.2,57-8,84.6-12.5c3.5-0.6,7.1-4.9,9.2-8.4c11.5-19.1,21.8-39,34-57.6
			c14.7-22.3,33.9-42.1,45.8-65.6c36.6-72.7,10.2-154-60.4-189.3c-51.1-25.5-103.1-26.9-151.9,5.1c-48.4,31.7-66.2,79.4-61.2,135.7
			c3.4,38.5,22.2,70.4,47.7,98.6C233.3,393.3,255.7,421.2,261.1,460.4z M264.4,499.7c28.7-4.1,55.8-8,83.4-11.9c0-5.9,0-10.9,0-17.4
			c-28,4-55.4,7.8-83.4,11.8C264.4,488.1,264.4,493.1,264.4,499.7z M348.8,509.9c-29,4.1-56,8-84.1,12c0.9,4.8,1.5,8.3,2.3,12.8
			c27.9-3.4,54.6-6.7,81.9-10C348.8,519.4,348.8,515.3,348.8,509.9z M337.8,548.4c-19.5,2.4-37.9,4.6-57.3,7
			C296.8,573.2,323.5,570,337.8,548.4z"/>
		<path d="M303.6,325.1c-20.9,16.4-32.2,14.5-49.1-7.7c-1.8-2.4-5.9-2.9-8.3-5.1c-7.4-6.8-16.5-12.9-21.3-21.3
			c-6.1-10.8-9.6-23.4-12.4-35.6c-1.5-6.7-1.9-15.9,1.6-20.9c7.6-11.1,10.7-24.5,17.9-34.8c9.9-14.2,23.8-26.5,38.1-36.4
			c10.8-7.4,23.5-3.1,32.3,7.6c20.9-16,32.9-14.2,49.1,6.6c1.8,2.4,5.4,3.8,8.4,4.8c15.3,5.3,24.1,16.7,25.8,32.4
			c0.5,4.8,2.4,9.8,5,13.8c10,15.2,9.2,29-3.1,42.5c-1.2,1.3-3.4,2.2-3.7,3.6c-3.5,19.2-16.9,30.5-29.8,43.9
			C336.5,336.8,324.1,341.1,303.6,325.1z M251.1,193.3c-4.1,8.1-7.5,14.6-10.8,21.1c-3.1,6.1-5.1,13.1-9.4,18.2
			c-8.2,9.8-8.7,17.6-1.4,28c3.3,4.7,5.6,11,6,16.7c0.9,11.8,5.8,19.4,15.3,22.1c8.6-6.9,15.5-13.2,23.2-18.4c1.8-1.2,5.9,1,8.9,1.7
			c-0.7,3-0.7,6.7-2.4,9c-2.3,2.9-6.4,4.4-9.1,7.1c-6.2,6.2-6.9,12.9,0,19.1c7,6.2,14.8,6.7,19.9-1.5c3.5-5.5,5.8-12.8,5.9-19.3
			c0.6-32.9,0.6-65.8,0-98.6c-0.1-6.5-2.1-14.7-6.4-18.8c-3.6-3.4-13.1-4.3-17.6-1.9c-3.4,1.8-3.8,10.6-4.3,16.3
			c-0.4,4.7,1,9.5,1.6,14.3c-4.7-2.8-9.4-5.5-14-8.5C255.1,198.9,254.3,197.2,251.1,193.3z M358.4,300c3.1-6.6,5.9-12.9,9-19
			c3-6.1,6.7-11.9,9.2-18.3c2.6-6.7,7.7-15.7,5.2-20.4c-5.6-10.6-10.8-20.3-11.3-32.9c-0.2-4.7-7.9-9.4-12.8-13.3
			c-0.9-0.7-5,2.7-7.7,4c-3.8,1.8-7.8,3.4-11.6,5.1c0-4.1-0.9-8.6,0.3-12.4c2.8-9-2.2-17.6-11.7-18.7c-9.1-1.1-15.6,5.8-15.7,17.7
			c-0.2,35.5-0.2,71,0.1,106.5c0,5,1.4,10.3,3.3,15c3.7,9.1,10.7,10.8,19,6.3c12.2-6.6,11.4-15.5-1.5-26.1c-2.8-2.4-3.6-7.2-5.3-11
			c4.2-0.1,9.5-1.8,12.4,0.1C345.5,286.8,350.6,292.8,358.4,300z"/>
		<path d="M241.3,245.4c4.9-9.2,9-17.9,14.1-26c1-1.6,6.9-2.2,8.4-0.8c1.7,1.5,2.6,7,1.3,8.6c-9.9,12.1-10,24.1-1.7,37
			c1.2,1.9-0.9,5.9-1.5,8.9c-3.1-0.6-8-0.2-9-2C248.7,263.3,245.6,255,241.3,245.4z"/>
		<path d="M365.3,243.9c-4.6,11.2-7.4,19.7-11.7,27.4c-1.4,2.4-7,2.5-10.6,3.6c-0.2-3.5-2-7.9-0.5-10.2c9.2-14.5,8.9-27.3-4-39.6
			c-1.7-1.6-0.9-5.9-1.2-8.9c3.4-0.1,8.8-1.7,9.9-0.2C353.8,224.9,359.5,234.6,365.3,243.9z"/>
	</g>
</g>
</svg>
