<?xml version="1.0" encoding="utf-8"?>
<!-- Generator: Adobe Illustrator 24.2.1, SVG Export Plug-In . SVG Version: 6.00 Build 0)  -->
<svg version="1.1" id="Layer_1" xmlns="http://www.w3.org/2000/svg" xmlns:xlink="http://www.w3.org/1999/xlink" x="0px" y="0px"
	 viewBox="0 0 600 600" style="enable-background:new 0 0 600 600;" xml:space="preserve">
<g>
	<path d="M566.7,540.6c-2.9,9-6.8,17.5-15.8,21.7c-5.2,2.4-11.3,4.3-16.9,4.3c-127.6,0.2-255.1,0.2-382.7,0.1
		c-19.3,0-32.6-13.4-32.7-32.7c-0.2-28.8-0.1-57.6,0-86.4c0-7.7,4.2-12.4,10.5-12.4c6.3,0,10.4,4.8,10.4,12.5c0,27.9,0,55.8,0,83.8
		c0,10.7,3.5,14.3,14,14.3c126,0,252,0,378,0c10.7,0,14.3-3.5,14.3-14c0-126.5,0-253,0-379.6c0-1.6,0-3.1,0-5.4c-2.1,0-3.9,0-5.7,0
		c-18.5,0-37,0-55.5,0c-20.9-0.1-34-13.1-34-34c0-18.3,0-36.6,0-55c0-1.9,0-3.8,0-6.3c-2.2,0-4.1,0-5.9,0c-96.9,0-193.7,0-290.6,0
		c-11.3,0-14.5,3.3-14.6,14.8c0,2.9,0,5.9,0,8.9c9-0.9,17.6-2,26.3-2.5c9.4-0.6,13.6,3.5,13.6,12.9c0,40.8,0,81.7,0,122.5
		c0,9.3-3.8,13.2-12.9,13.2c-41,0-82,0-123,0c-8.9,0-13.1-4.1-12.7-12.8c2.9-57.2,30.1-98.5,81.7-123.5c4.9-2.4,6.8-4.8,6.3-10
		c-0.4-4.3-0.2-8.7,0-13.1c0.5-14.5,9-25.5,22.8-29.9c1.1-0.4,2.2-0.9,3.3-1.3c106.5,0,212.9,0,319.4,0c3.5,3.1,7.2,6,10.5,9.3
		c27.8,27.7,55.5,55.4,83.3,83.2c3.2,3.2,6,6.7,8.9,10.1C566.7,269,566.7,404.8,566.7,540.6z M157.9,200c0-35.5,0-70.6,0-105.7
		C99.2,98.5,54.6,150.1,52.7,200C87.7,200,122.6,200,157.9,200z M528.9,125.9c-19.2-19.2-38.4-38.4-57.4-57.4
		c0,15.3-0.2,31.3,0.1,47.3c0.1,6,4.4,9.8,10.6,10.1c4.9,0.2,9.8,0.1,14.6,0.1C507.8,125.9,518.7,125.9,528.9,125.9z"/>
	<path d="M195.9,237.9c0-2.5,0-4.4,0-6.3c0-35.8,0-71.5,0-107.3c0-11,3.5-14.4,14.4-14.2c64.3,1.7,119.7,48.7,131.8,111.8
		c14.4,74.8-34.7,147.6-109.3,162.1c-74.4,14.5-147.1-34.1-162-108.6c-1.6-8-2.1-16.2-2.5-24.4c-0.5-9.2,3.5-13.1,12.8-13.1
		c35.9,0,71.9,0,107.8,0C190.9,237.9,193,237.9,195.9,237.9z M295.7,173c-1.4,1.7-2.3,3.1-3.6,4.4c-25,25.1-50.1,50-75,75.2
		c-4.4,4.4-9,6.4-15.3,6.4c-35.4-0.2-70.8-0.1-106.2-0.1c-1.9,0-3.8,0-5.7,0c2.9,45.7,38,92.1,91.9,104.3
		c48.7,11.1,101.8-12.5,127.4-58.4C334.6,259,324.5,205.3,295.7,173z M217.2,220.8c20.9-20.9,42-42,63.4-63.3
		c-18.1-14.8-39.2-23.6-63.4-26C217.2,161.6,217.2,191.5,217.2,220.8z"/>
	<path d="M303.5,382.2c20.4,0,35.3,18.9,30.3,38.9c-0.8,3.1-0.1,4.8,2,6.8c11.4,11.3,22.8,22.6,34,34c2.1,2.1,3.8,2.9,6.8,1.8
		c6.6-2.5,13.3-2.1,20,0c1.7,0.5,4.5-0.1,5.7-1.3c18.5-18.2,36.8-36.7,55.3-55c2.2-2.2,2.2-4.1,1.4-6.9
		c-4.6-17.2,5.7-34.2,23.1-38.6c16.2-4.1,33.1,6.3,37.5,22.9c4.3,16.5-5.7,34-22.7,37.8c-5.8,1.3-12.3-0.1-18.4-1
		c-2.7-0.4-4.5-1-6.8,1.3c-18,18.2-36.2,36.4-54.4,54.4c-2.1,2.1-2.3,3.7-1.4,6.4c4.4,13.3-0.2,27-11.5,35.2
		c-10.6,7.7-25.6,7.6-36.3,0c-11.2-8.1-15.9-22-11.5-35.2c1-2.9,0.7-4.7-1.5-6.9c-11.2-11-22.3-22.1-33.3-33.3
		c-2-2.1-3.7-2.6-6.3-1.3c-7.3,3.6-14.8,3-22.4,0.9c-1.8-0.5-4.8,0.2-6.2,1.5c-11,10.7-21.7,21.7-32.7,32.4c-2.2,2.2-2.4,4-1.5,6.8
		c5.2,15.8-2.7,32.8-17.9,38.7c-15.7,6.2-33.4-1-40.4-16.4c-6.8-15-0.5-32.9,14.5-40.6c7.6-3.9,15.7-4.7,23.8-1.7
		c2.9,1.1,4.7,0.5,6.8-1.7c10.8-11,21.6-21.8,32.6-32.6c2.2-2.1,2.5-3.9,1.6-6.9C267.5,402.5,282.5,382.2,303.5,382.2z M396.7,493.1
		c-0.2-5.5-5.2-10.2-10.7-10.1c-5.6,0.1-10.1,4.9-10,10.6c0.1,5.6,5,10.3,10.5,10.1C392.1,503.6,396.9,498.5,396.7,493.1z
		 M233.5,493.4c0-5.5-4.9-10.4-10.4-10.3c-5.6,0-10.3,4.8-10.3,10.4c0,5.5,4.9,10.4,10.4,10.4C228.6,503.8,233.5,498.8,233.5,493.4z
		 M489.2,382.2c-5.6,0.1-10.4,4.8-10.3,10.3c0.1,5.6,4.9,10.2,10.5,10.2c5.6,0,10.3-4.8,10.3-10.4
		C499.6,386.8,494.9,382.2,489.2,382.2z M314,413.6c0.1-5.6-4.5-10.3-10.2-10.4c-5.7-0.1-10.4,4.4-10.5,10.1
		c-0.1,5.7,4.5,10.4,10.2,10.5C309,423.8,313.9,419.2,314,413.6z"/>
	<path d="M445.8,176.1c20.1,0,40.1,0,60.2,0c2.4,0,4.9,0.1,7.2,0.9c4.4,1.5,6.7,4.9,6.7,9.6c0,4.7-2.3,7.9-6.7,9.6
		c-1.4,0.5-3.1,0.8-4.6,0.8c-41.9,0-83.7,0-125.6,0c-5.2,0-9.2-2-11-7.1c-2.4-7,2.5-13.5,10.5-13.7c7-0.2,13.9-0.1,20.9-0.1
		C417.5,176.1,431.7,176.1,445.8,176.1z"/>
	<path d="M445.3,247.3c-20.6,0-41.2,0.1-61.7,0c-8.5,0-13.4-5.5-11.8-12.7c1.2-5.1,5-8.1,11.2-8.1c9.2-0.1,18.5,0,27.7,0
		c32.1,0,64.2,0,96.3,0c7.1,0,11.4,2.8,12.6,7.9c1.7,7.5-3.3,13-12,13.1C486.8,247.4,466,247.3,445.3,247.3z"/>
	<path d="M409.1,297.6c-8.5,0-17.1,0.1-25.6,0c-7.5-0.1-12.3-4.4-12.2-10.7c0.2-6.1,4.9-10.2,12.1-10.2c17.2-0.1,34.5-0.1,51.7,0
		c7.5,0,12.3,4.4,12.2,10.7c-0.2,6.1-4.8,10.1-12.1,10.2C426.5,297.7,417.8,297.6,409.1,297.6z"/>
	<path d="M474.4,287.4c-0.1-5.7,4.4-10.5,10-10.6c5.5-0.2,10.4,4.6,10.6,10.2c0.1,5.5-4.5,10.5-10.1,10.6
		C479.3,297.7,474.5,293,474.4,287.4z"/>
	<path d="M129.2,397.2c5.5,0.2,10.3,5.2,10.2,10.6c-0.2,5.5-5.2,10.3-10.6,10.2c-5.5-0.2-10.3-5.2-10.1-10.6
		C118.7,401.9,123.8,397,129.2,397.2z"/>
</g>
</svg>
