<?xml version="1.0" encoding="utf-8"?>
<!-- Generator: Adobe Illustrator 24.2.1, SVG Export Plug-In . SVG Version: 6.00 Build 0)  -->
<svg version="1.1" id="Layer_1" xmlns="http://www.w3.org/2000/svg" xmlns:xlink="http://www.w3.org/1999/xlink" x="0px" y="0px"
	 viewBox="0 0 600 600" style="enable-background:new 0 0 600 600;" xml:space="preserve">
<g>
	<path d="M142.3,455c0,8.3,0.2,15.5-0.1,22.7c-0.3,9.2-5.8,14.5-14.6,14.7c-9.4,0.2-15.3-5.1-15.8-14.9c-0.4-7.2-0.1-14.4-0.1-23.9
		c-8.3,0-15.8,0.2-23.3-0.1c-9.7-0.4-15.4-5.7-15.2-15.4c0.2-9.7,6-14.8,15.7-15c7.1-0.2,14.2,0,22.1,0c0-98.9,0-196.4,0-295.7
		c-8.3,0-15.9,0.3-23.4-0.1c-9.1-0.5-14.2-5.8-14.3-14.9c-0.1-9,5-14.5,13.9-15.3c7.6-0.6,15.2-0.1,24.6-0.1c0-8.3-0.2-15.4,0-22.4
		c0.3-10.3,5.5-16.4,15.9-16.1c9.9,0.2,14.4,6.5,14.6,16c0.1,6.7,0,13.5,0,21.3c98.5,0,196,0,295.5,0c0-5.4-0.1-11.1,0-16.8
		c0.2-14.1,5.3-21.2,15.6-20.7c13.5,0.7,15.4,10.2,15.1,21.1c-0.2,5.3,0,10.6,0,17.4c8.2,0,14.9,0.1,21.5,0c10.3-0.1,17,4.8,17.2,15
		c0.2,10.2-6.1,15.6-16.5,15.6c-6.7,0-13.4,0-21.1,0c-0.4,5.1-1,9-1,12.9c-0.1,62.9,0.2,125.9-0.3,188.8c-0.1,9.5,3,13.3,11.7,16.1
		c24.9,8.1,49.5,17.3,74.3,25.7c8.4,2.9,14.9,6.8,14.8,16.8c-0.1,10.1-7.3,13.6-15.5,16.2c-30,9.9-59.9,20.3-90.1,29.7
		c-8.4,2.6-12.3,7.2-14.9,15.2c-9.5,29.7-19.7,59.2-29.4,88.8c-2.8,8.6-6.1,16.4-17,16.4c-10.9-0.1-14-8-16.9-16.5
		c-8.5-24.8-17.3-49.5-25.8-74.3c-2-6-4.1-10-11.9-9.9c-66.1,0.3-132.2,0.2-198.3,0.3C147.7,453.8,146,454.3,142.3,455z
		 M183.2,274.7c35.6,35.9,71.8,72.3,108,108.8c30.9-26.6,30.9-26.6,17.8-65c-0.6-1.7-1.8-3.5-1.6-5.1c0.7-5.9,0.1-13.5,3.5-17.1
		c3.4-3.5,11.5-4.7,16.9-3.5c11.4,2.5,22.2,7.6,33.5,10.8c3.6,1,9,0.6,11.7-1.5c9.9-7.8,18.9-16.6,26.1-23
		c-38.4-38.4-74.6-74.7-109.8-110C254.3,203.9,218.2,239.9,183.2,274.7z M437.2,266.2c0-46.2,0-91.6,0-137.6c-46.3,0-91.9,0-137.7,0
		C345.6,174.7,391,220,437.2,266.2z M276.7,422.3c-43.9-44-89.5-89.7-133.3-133.5c0,42.1,0,87.6,0,133.5
		C189.8,422.3,235.2,422.3,276.7,422.3z M143.2,263.2c44.8-44.8,90.2-90.2,134.7-134.7c-43.1,0-88.5,0-134.7,0
		C143.2,174.5,143.2,219.7,143.2,263.2z M402,491c7.6-22.9,14.7-42.2,20.4-62c3.4-11.6,9.9-18.1,21.5-21.5
		c19.7-5.8,39.1-12.8,62-20.5c-54.5-18.9-105.3-36.6-159.3-55.3C365.4,385.7,383,436.5,402,491z M402.5,318.1
		c12.1,4.2,22.9,7.9,34.2,11.8c0-16.1,0-30.8,0-43.3C426.1,296.4,415,306.7,402.5,318.1z M333.5,389.2c-11.4,11.8-22,22.8-32,33.2
		c12.8,0,27.3,0,43.4,0C340.9,410.5,337.2,399.7,333.5,389.2z"/>
</g>
</svg>
