<?xml version="1.0" encoding="utf-8"?>
<!-- Generator: Adobe Illustrator 24.2.1, SVG Export Plug-In . SVG Version: 6.00 Build 0)  -->
<svg version="1.1" id="Layer_1" xmlns="http://www.w3.org/2000/svg" xmlns:xlink="http://www.w3.org/1999/xlink" x="0px" y="0px"
	 viewBox="0 0 600 600" style="enable-background:new 0 0 600 600;" xml:space="preserve">
<g>
	<path d="M50.5,141.4c5.4,0,9.9,0,16.1,0c0,5.3,0,9.9,0,14.5c0,91.9-0.1,183.9,0.2,275.8c0,9.8,0.8,20.1,4,29.3
		c7.4,21.2,26.8,32.1,50.4,30.4c23.1-1.7,35.7-12.5,40.9-36.3c1.9-8.8,2.5-18,2.5-27.1c0.2-111,0.1-222.1,0.1-333.1
		c0-19.9,0.3-20.2,20.6-20.2c114.1,0,228.1,0,342.2,0c19.8,0,19.9,0,19.9,19.3c0,113.6,0,227.3,0,340.9c0,42.7-32,74.5-75,74.5
		c-118.4,0.1-236.8,0.1-355.2,0c-36.9,0-67-27.8-67.2-63.6c-0.5-99.7-0.2-199.5-0.1-299.3C49.8,145.2,50.2,144,50.5,141.4z
		 M163.3,491.7c22.6,0,42.5,0,62.4,0c81.1,0,162.2,0.1,243.4,0c29.8-0.1,50.5-13.5,58.2-38.4c2.5-8.1,3.1-17.1,3.1-25.6
		c0.2-107.1,0.1-214.3,0.1-321.4c0-4.2,0-8.5,0-13.1c-116.7,0-231.8,0-347.9,0c0,6.1,0,11.2,0,16.3c0,105,0,210,0,314.9
		C182.6,447.8,179.6,470.2,163.3,491.7z"/>
	<path d="M79.7,142c5.4,0,10.1,0,16.5,0c0,7.4,0,14.2,0,21c0,91.1,0,182.2,0.1,273.3c0,4.7-0.3,9.9,1.5,14.1
		c3.7,8.8,11,13.6,20.8,11.9c11.6-2.1,16.7-10.1,16.7-21.4c0.1-42.5,0.1-85,0.1-127.5c0-52.9,0-105.8,0-158.8c0-3.8,0-7.6,0-12.3
		c5.6,0,10.1,0,15.8,0c0.3,3.7,0.8,7.5,0.8,11.2c0.1,95.9,0.1,191.7,0.1,287.6c0,22.5-15.6,39.2-36.4,39C95.3,480,79,464,78.9,442.3
		c-0.3-98.5-0.1-196.9-0.1-295.4C78.8,145.7,79.3,144.4,79.7,142z"/>
	<path d="M125,444c-5.6,0-10.3,0-15.9,0c0-100.6,0-200.9,0-301.9c5.4,0,10.3,0,15.9,0C125,242.7,125,342.6,125,444z"/>
	<path d="M502,179.5c0,31.3,0,61.4,0,92.3c-59.8,0-119,0-179.2,0c0-30.4,0-60.8,0-92.3C382.4,179.5,441.8,179.5,502,179.5z
		 M484.5,196.2c-49.1,0-96.6,0-144.6,0c0,19.6,0,38.4,0,57.3c48.6,0,96.5,0,144.6,0C484.5,234,484.5,215.5,484.5,196.2z"/>
	<path d="M222.2,147.4c0-5.2,0-9.7,0-15.1c93.2,0,186.1,0,279.5,0c0,5.2,0,9.7,0,15.1C408.7,147.4,316.2,147.4,222.2,147.4z"/>
	<path d="M379.2,313.9c0-5.4,0-9.6,0-14.7c40.9,0,81.4,0,122.6,0c0,4.6,0,9.1,0,14.7C461.4,313.9,420.9,313.9,379.2,313.9z"/>
	<path d="M502.2,337.9c0,5.6,0,9.8,0,14.9c-40.9,0-81.4,0-122.6,0c0-5,0-9.5,0-14.9C420.3,337.9,460.7,337.9,502.2,337.9z"/>
	<path d="M379.3,391.6c0-4.9,0-9.1,0-14.5c40.6,0,81,0,122.7,0c0.2,4.2,0.4,8.8,0.7,14.5C461.7,391.6,421.2,391.6,379.3,391.6z"/>
	<path d="M502.2,415.7c0,5.7,0,9.9,0,15c-40.9,0-81.4,0-122.7,0c0-4.9,0-9.4,0-15C420.3,415.7,460.8,415.7,502.2,415.7z"/>
	<path d="M221.9,314c0-5.3,0-9.6,0-14.9c40.6,0,81.1,0,122.2,0c0,4.9,0,9.5,0,14.9C303.5,314,263.4,314,221.9,314z"/>
	<path d="M344.2,338c0,5.2,0,9.7,0,15c-40.8,0-80.9,0-121.8,0c0-4.9,0-9.5,0-15C262.4,338,302.5,338,344.2,338z"/>
	<path d="M344.4,376.8c0,5.6,0,9.9,0,15c-40.8,0-81.1,0-122.1,0c0-5,0-9.5,0-15C262.7,376.8,303,376.8,344.4,376.8z"/>
	<path d="M222.6,415.2c40.8,0,80.5,0,121.1,0c0,5.3,0,10.1,0,15.7c-40.3,0-80.3,0-121.1,0C222.6,425.6,222.6,420.5,222.6,415.2z"/>
	<path d="M222.1,272c0-5.3,0-9.9,0-15.7c25.5,0,50.8,0,76.8,0c0,5.1,0,10,0,15.7C273.4,272,248,272,222.1,272z"/>
	<path d="M222.2,194.3c0-5,0-9.6,0-14.9c25.6,0,50.8,0,76.7,0c0,4.7,0,9.2,0,14.9C274,194.3,248.8,194.3,222.2,194.3z"/>
	<path d="M299.3,218c0,5.4,0,9.6,0,14.9c-25.3,0-50.4,0-76.7,0c0-4.4,0-9.2,0-14.9C247.7,218,272.9,218,299.3,218z"/>
</g>
</svg>
