<?xml version="1.0" encoding="utf-8"?>
<!-- Generator: Adobe Illustrator 24.2.1, SVG Export Plug-In . SVG Version: 6.00 Build 0)  -->
<svg version="1.1" id="Layer_1" xmlns="http://www.w3.org/2000/svg" xmlns:xlink="http://www.w3.org/1999/xlink" x="0px" y="0px"
	 viewBox="0 0 600 600" style="enable-background:new 0 0 600 600;" xml:space="preserve">
<g>
	<path d="M395.5,335c-8-27.5-15.8-54.3-23.7-81.2c-2.3-8,0.2-12,8.4-13.1c33.7-4.7,62.8,16,69.9,49.6c3.8,18.3,7.7,36.5,11.6,54.7
		c1,4.6,1.9,9.1,3,13.7c0.3,1,1.2,2.3,2.2,2.6c8.8,3.4,17.6,6.6,26.4,9.9c20.9-24.8,54.5-22.6,72.9-4.6
		c18.2,17.8,19.5,47.8,2.4,67.3c-16.9,19.2-47.8,23.2-68.6,4.8c2.6,3.6,6.5,8,9.4,13.1c14,24.7,4.6,56.9-20.3,70.6
		c-22.3,12.3-50.2,7-65.9-12.5c-16.2-20.1-15.8-48.2,1.2-67.6c1.3-1.5,1.7-2.6,1.1-4.6c-2.7-8.7-5.3-17.4-7.6-26.2
		c-0.7-2.6-2-3.8-4.5-4.5c-22.1-6.5-44.3-12.9-66.3-19.8c-30-9.3-47.9-41.7-40.4-71.9c2.2-8.9,5.8-10.8,14.5-7.6
		c24,8.8,47.9,17.7,71.9,26.5C393.6,334.4,394.3,334.6,395.5,335z M321.3,324.8c-2,22,11.4,41.6,32.2,47.8c23.5,7,46.9,14.1,70.4,21
		c4.1,1.2,6.5,3.4,7.7,7.7c3.2,11.6,6.5,23.1,10.2,34.5c2.1,6.3,1.4,10.9-3.8,15.8c-11.3,10.6-13.5,27.8-6.5,41.7
		c6.8,13.4,22,21.5,37,19.5c17.1-2.3,30.9-16.8,31.6-33.4c0.8-18.4-10.6-33.9-28.2-37.9c-4.4-1-6.7-3.4-7.5-7.6
		c-1-5-2.1-10-3.2-15.1c-1.8-8.4,3-13,11.3-10.6c9,2.6,17.9,5.2,26.8,8.1c2.2,0.7,4.4,2.4,5.7,4.2c8.1,11.2,21.5,16.3,35.2,13.1
		c12.3-2.9,22.7-13.9,24.3-26.2c1.9-14-2.7-25.5-14.6-33.2c-15.6-10.1-35.2-5.7-45.5,9.7c-3.3,5-6.2,6.1-11.2,4.3
		c-12.4-4.5-24.7-9.1-37.1-13.6c-3.2-1.2-5.1-3.4-5.8-6.8c-5.1-24.4-10.4-48.8-15.4-73.2c-2.7-13.4-9.1-24.1-20.7-31.5
		c-7.4-4.7-15.5-7.3-24.7-6.8c0.3,1.3,0.6,2.3,0.9,3.3c8.3,28.4,16.5,56.8,24.9,85.2c1,3.6,0.9,6.7-1.9,9.3
		c-2.8,2.6-6.1,2.5-9.5,1.2c-15.4-5.7-30.9-11.4-46.3-17.1C345.4,333.7,333.5,329.3,321.3,324.8z M495.7,435.2
		c-2.2-5-6.5-5.3-10.5-6.1C488.6,431,492,433,495.7,435.2z"/>
	<path d="M161.1,183.2c41.6,0,83.2,0,124.9,0c7.5,0,9.9,2.4,9.9,9.8c0,40.3-0.1,80.7-0.1,121c0,1.9,0.3,3.8-0.2,5.6
		c-1.1,4.1-4.1,5.9-9.2,5.9c-63.9,0-127.9,0-191.8,0c-19.2,0-38.3,0-57.5,0c-7.9,0-10.6-2.7-10.6-10.5c0-40.3,0-80.7,0-121
		c0-0.7,0-1.4,0-2.1c0.2-5.8,3.1-8.7,9-8.7C77.4,183.2,119.2,183.2,161.1,183.2z M42.6,309.3c79.3,0,158.2,0,237.2,0
		c0-36.8,0-73.3,0-110.1c-79.2,0-158.1,0-237.2,0C42.6,235.9,42.6,272.5,42.6,309.3z"/>
	<path d="M157.9,155.7c-37.4,0-74.8,0-112.2,0c-6.2,0-12.4-0.1-18.5-0.1c-4.5-0.1-7.7-3.5-7.7-8.6c-0.1-15.4,0-30.9,0-46.3
		c0-6.5,0-13.1,0-19.6c0-7.1,2.9-10,9.9-10c65.1,0,130.2,0.1,195.3,0.1c21.2,0,42.3-0.1,63.5-0.1c6.9,0,9.8,3,9.8,9.8
		c0,21.4,0,42.8,0,64.2c0,8.2-2.6,10.8-11,10.8C243.8,155.7,200.9,155.7,157.9,155.7z M35.6,139.7c82.2,0,164.1,0,246,0
		c0-17.7,0-35.1,0-52.5c-82.3,0-164.1,0-246,0C35.6,104.8,35.6,122.1,35.6,139.7z"/>
	<path d="M158.6,348.8c33.2,0,66.4,0,99.6,0c10.2,0,20.3-0.1,30.5-0.2c6.2,0,9.2,3,9.2,9.2c0,21.9,0,43.7,0,65.6
		c0,6.9-2.8,9.7-9.8,9.7c-70.7,0-141.4,0-212.1,0c-15.7,0-31.3,0-47,0c-6.6,0-9.5-3-9.5-9.6c0-21.7,0-43.5,0-65.2
		c0-6.9,3-9.5,9.9-9.5c14.5,0.1,28.9-0.1,43.4-0.1c28.6,0,57.2,0,85.9,0C158.6,348.7,158.6,348.8,158.6,348.8z M35.5,417.1
		c82.3,0,164.2,0,246,0c0-17.6,0-35,0-52.5c-82.2,0-164.1,0-246,0C35.5,382.2,35.5,399.5,35.5,417.1z"/>
	<path d="M447.3,376.7c0,7-5.6,12.7-12.6,12.7c-7.5,0-13.4-5.6-13.3-12.8c0-7,5.9-13,12.9-13C441.5,363.5,447.3,369.4,447.3,376.7z"
		/>
	<path d="M113.6,98.5c9.9,0,19.7,0,29.6,0c0,8.5,0,16.9,0,25.5c-9.9,0-19.6,0-29.6,0C113.6,115.6,113.6,107.2,113.6,98.5z"/>
	<path d="M171.7,98.5c10.1,0,19.9,0,29.8,0c0,8.4,0,16.8,0,25.7c-2.7,0-5.4,0-8.2,0c-6.3,0-12.6,0.1-18.9-0.1
		c-0.9,0-2.6-1.1-2.6-1.7C171.6,114.5,171.7,106.6,171.7,98.5z"/>
	<path d="M230.3,98.5c9.9,0,19.5,0,29.4,0c0,8.5,0,16.8,0,25.5c-9.7,0-19.4,0-29.4,0C230.3,115.6,230.3,107.2,230.3,98.5z"/>
	<path d="M85,98.6c0,8.4,0,16.8,0,25.4c-9.9,0-19.7,0-29.7,0c0-8.4,0-16.8,0-25.4C65.2,98.6,75,98.6,85,98.6z"/>
	<path d="M55.4,376.1c9.9,0,19.7,0,29.6,0c0,8.6,0,16.9,0,25.5c-9.9,0-19.6,0-29.6,0C55.4,393.2,55.4,384.8,55.4,376.1z"/>
	<path d="M143.2,401.7c-10,0-19.6,0-29.6,0c0-8.5,0-17,0-25.6c9.8,0,19.6,0,29.6,0C143.2,384.6,143.2,392.9,143.2,401.7z"/>
	<path d="M171.8,401.5c0-8.5,0-16.8,0-25.4c9.9,0,19.7,0,29.8,0c0,8.4,0,16.7,0,25.4C191.7,401.5,181.9,401.5,171.8,401.5z"/>
	<path d="M230.3,376.1c9.9,0,19.6,0,29.5,0c0,8.5,0,16.9,0,25.5c-9.8,0-19.5,0-29.5,0C230.3,393.2,230.3,384.9,230.3,376.1z"/>
</g>
</svg>
