<?xml version="1.0" encoding="utf-8"?>
<!-- Generator: Adobe Illustrator 24.2.1, SVG Export Plug-In . SVG Version: 6.00 Build 0)  -->
<svg version="1.1" id="Layer_1" xmlns="http://www.w3.org/2000/svg" xmlns:xlink="http://www.w3.org/1999/xlink" x="0px" y="0px"
	 viewBox="0 0 300 300" style="enable-background:new 0 0 300 300;" xml:space="preserve">
<g>
	<path d="M-303.28,216.85c24.71-21.17,48.87-41.88,73.35-62.85c-24.38-20.9-48.55-41.62-73.29-62.82c-0.23,2.23-0.48,3.85-0.54,5.47
		c-0.11,2.97,0.07,5.97-0.18,8.92c-0.31,3.55-2.98,5.85-6.38,5.85c-3.37,0.01-6.35-2.36-6.43-5.8c-0.13-5.08-0.29-10.26,0.5-15.25
		c1.9-12.06,12.57-20.95,24.77-21.27c0.74-0.02,1.49-0.03,2.23-0.03c66.58,0,133.16-0.01,199.74,0.01c13.75,0,24.15,7.99,26.9,20.72
		c0.51,2.36,0.57,4.86,0.57,7.29c0.03,37.96,0.04,75.92,0.01,113.88c-0.01,17.04-10.9,27.93-27.9,27.93
		c-66.37,0.01-132.73,0.01-199.1,0c-16.88,0-27.84-11.07-27.86-28.03c0-2.45-0.05-4.89,0.01-7.34c0.1-4.15,2.6-6.87,6.32-6.97
		c3.88-0.11,6.53,2.54,6.72,6.88c0.12,2.65-0.01,5.32,0.06,7.97C-303.72,212.98-303.49,214.52-303.28,216.85z M-293.3,82.32
		c1.35,1.23,2.02,1.88,2.73,2.49c31.75,27.16,63.5,54.33,95.26,81.48c4.56,3.9,7.27,3.9,11.74,0.07
		c31.83-27.24,63.66-54.48,95.48-81.72c0.69-0.59,1.34-1.25,2.48-2.32C-154.96,82.32-223.68,82.32-293.3,82.32z M-293.32,225.56
		c69.58,0,138.32,0,207.84,0c-24.9-21.35-49.16-42.15-73.53-63.05c-6.18,5.36-12.04,10.6-18.08,15.64
		c-6.86,5.72-15.95,6.14-23.07,1.25c-0.96-0.66-1.84-1.44-2.72-2.21c-5.61-4.85-11.2-9.7-16.95-14.68
		C-244.29,183.5-268.53,204.29-293.32,225.56z M-148.88,154c24.47,20.97,48.63,41.68,72.86,62.44c1.45-3.6,1.38-121.57-0.06-124.83
		C-100.23,112.31-124.33,132.96-148.88,154z"/>
	<path d="M-320.33,176.92c-9.46,0-18.92,0.05-28.37-0.02c-5.01-0.04-8.02-3.49-7.15-7.95c0.62-3.2,3.28-5.16,7.39-5.19
		c8.18-0.06,16.37-0.02,24.55-0.02c10.63,0,21.25-0.03,31.88,0.02c4.42,0.02,7.23,2.14,7.71,5.6c0.59,4.31-2.42,7.52-7.31,7.56
		C-301.2,176.97-310.76,176.92-320.33,176.92z"/>
	<path d="M-310.36,131.08c6.17,0,12.33-0.03,18.5,0.01c4.64,0.03,7.5,2.49,7.59,6.38c0.1,4.04-2.78,6.75-7.53,6.78
		c-12.33,0.07-24.66,0.06-36.99,0c-4.73-0.02-7.76-2.79-7.67-6.71c0.09-3.91,3.13-6.42,7.93-6.45
		C-322.48,131.05-316.42,131.08-310.36,131.08z"/>
</g>
<g>
	<path d="M146.81,286c-1.8-0.43-3.61-0.8-5.38-1.29c-15.14-4.23-25.53-17.59-26.1-33.38c-0.04-1.06-0.55-2.44-1.33-3.08
		c-6.31-5.16-7.39-12.43-2.67-19.03c0.2-0.28,0.38-0.58,0.59-0.92c-4.3-5.65-4.84-11.4-0.7-17.41c0.38-0.55,0.04-1.85-0.34-2.62
		c-5.25-10.9-10.26-21.94-15.94-32.61c-5.83-10.96-9.21-22.34-8.71-34.8c0.29-7.23,1.81-14.19,4.48-20.9
		c1.22-3.08,3.28-4.22,5.67-3.22c2.24,0.94,2.88,3.1,1.74,6.09c-6.39,16.75-4.99,32.86,3.59,48.57c4.79,8.76,9.11,17.77,13.56,26.71
		c1.29,2.6,2.3,5.35,3.35,7.84c3.53,0,6.87,0,10.56,0c0-1.29,0-2.32,0-3.36c0-15.67-0.04-31.34,0.06-47.01
		c0.01-1.77,0.49-3.7,1.31-5.27c4.08-7.85,8.38-15.57,12.51-23.39c1.51-2.86,3.47-4.98,6.89-5.01c3.41-0.03,5.42,2.06,6.94,4.92
		c4.18,7.89,8.51,15.7,12.64,23.62c0.78,1.49,1.22,3.34,1.23,5.03c0.09,15.67,0.05,31.34,0.05,47.01c0,1.04,0,2.08,0,3.42
		c3.58,0,6.9,0,10.56,0c1.01-2.34,2.03-5.06,3.32-7.65c4.86-9.73,9.71-19.46,14.73-29.1c14.82-28.47,2.76-63.62-26.46-76.88
		c-22.05-10.01-48.27-4.47-64.29,13.57c-0.41,0.46-0.8,0.96-1.25,1.38c-1.75,1.62-3.88,1.73-5.5,0.32
		c-1.69-1.47-1.89-3.77-0.31-5.68c4.43-5.38,9.67-9.85,15.64-13.43c38.15-22.91,87.79-0.21,95.52,43.65
		c2.52,14.27,0.32,27.75-6.24,40.67c-5.96,11.74-11.61,23.63-17.45,35.43c-0.71,1.44-0.55,2.45,0.31,3.82
		c3.55,5.66,2.68,11.1-0.81,15.62c1.08,3.34,2.37,6.16,2.85,9.12c0.6,3.67-1.01,6.86-3.37,9.73c-0.8,0.98-1.4,2.41-1.46,3.67
		c-0.26,5.92-1.42,11.57-4.22,16.84c-1.57,2.96-3.68,3.9-5.95,2.66c-2.2-1.2-2.64-3.34-1.17-6.2c2.01-3.91,3.17-8.02,3.2-12.67
		c-18.36,0-36.6,0-55.1,0c0.22,8.77,3.64,15.91,10.43,21.2c8.51,6.63,17.96,7.79,28.01,3.83c0.49-0.19,0.96-0.46,1.46-0.64
		c2.23-0.8,4.3-0.09,5.23,1.78c0.99,2,0.33,4.41-1.92,5.34c-3.08,1.28-6.34,2.14-9.52,3.18c-0.57,0.19-1.15,0.36-1.72,0.54
		C152.48,286,149.65,286,146.81,286z M149.94,242.57c9.29,0,18.57,0.02,27.85-0.01c3.39-0.01,5.5-1.78,5.73-4.62
		c0.25-3.07-1.51-5.05-5-5.62c-2.59-0.42-4.17-1.94-4.02-4.09c0.17-2.35,1.54-3.57,3.91-3.9c3.55-0.49,5.31-2.49,5.12-5.55
		c-0.18-2.95-2.31-4.71-5.89-4.77c-3.27-0.06-6.54-0.06-9.81-0.05c-15.39,0.05-30.77,0.08-46.16,0.2c-3.28,0.03-5.14,1.91-5.23,4.77
		c-0.1,2.87,1.66,4.85,4.75,5.39c2.92,0.51,4.47,1.87,4.29,4.06c-0.21,2.65-1.91,3.7-4.44,4c-3.03,0.36-4.77,2.57-4.59,5.45
		c0.18,2.86,2.28,4.71,5.63,4.72C131.37,242.59,140.66,242.57,149.94,242.57z M137.34,157.96c0,16.12,0,31.93,0,47.74
		c2.96,0,5.73,0,8.47,0c0-16.02,0-31.82,0-47.74C142.9,157.96,140.2,157.96,137.34,157.96z M154.17,157.98c0,16.12,0,31.9,0,47.77
		c2.94,0,5.7,0,8.47,0c0-16.05,0-31.9,0-47.77C159.73,157.98,157.03,157.98,154.17,157.98z M140.15,149.68c6.66,0,13.12,0,19.64,0
		c-2.07-5.88-2.07-5.88-7.74-5.88c-1.24,0-2.52,0.21-3.71-0.04c-4.39-0.9-6.74,1.21-7.99,5.12
		C140.3,149.05,140.26,149.22,140.15,149.68z M149.99,130.94c-0.98,1.85-1.69,3.17-2.49,4.67c1.86,0,3.26,0,5.02,0
		C151.66,134.01,150.97,132.73,149.99,130.94z"/>
	<path d="M106.65,77.5c-0.76,4.52-2.71,7.74-6.55,9.56c-3.93,1.86-8.02,1.66-11.16-1.34c-7.86-7.51-15.58-15.19-23.07-23.06
		c-3.74-3.94-3.2-10.12,0.58-13.97c3.88-3.96,10.12-4.62,14.15-0.81c7.89,7.48,15.55,15.21,23.05,23.08
		C105.21,72.61,105.68,75.3,106.65,77.5z M98.08,77c-0.32-0.45-0.81-1.37-1.51-2.08c-4.46-4.52-8.97-9-13.46-13.49
		c-2.31-2.31-4.61-4.62-6.94-6.92c-1.23-1.22-2.62-1.58-3.95-0.24c-1.33,1.34-0.94,2.71,0.27,3.95c0.31,0.32,0.62,0.63,0.93,0.94
		c6.36,6.37,12.73,12.73,19.1,19.09c0.56,0.56,1.11,1.18,1.79,1.54C96.08,80.74,98.05,79.54,98.08,77z"/>
	<path d="M193.85,76.02c0.62-1.18,1.4-3.96,3.16-5.81c7-7.37,14.24-14.52,21.52-21.63c4.34-4.24,10.62-4.18,14.8-0.12
		c4.24,4.12,4.45,10.6,0.17,15c-7.16,7.35-14.42,14.6-21.77,21.75c-3.28,3.19-7.36,3.83-11.55,1.99
		C196.08,85.39,194.03,82.04,193.85,76.02z M225.48,53.45c-0.42,0.28-1.23,0.66-1.83,1.26c-6.89,6.84-13.75,13.7-20.59,20.59
		c-1.58,1.59-1.56,3.95,0.12,4.35c1.16,0.28,2.99-0.24,3.86-1.08c6.73-6.5,13.29-13.16,19.9-19.78c0.49-0.49,1.01-1.02,1.32-1.64
		C229.12,55.44,227.78,53.38,225.48,53.45z"/>
	<path d="M160.61,39.82c0,4.86,0.03,9.73-0.01,14.59c-0.05,6.48-4.53,11.15-10.63,11.14c-6.09-0.01-10.54-4.69-10.56-11.2
		c-0.03-9.73-0.04-19.46,0-29.18c0.02-6.45,4.58-11.18,10.63-11.17c6.05,0.02,10.52,4.74,10.57,11.23
		C160.63,30.09,160.61,34.96,160.61,39.82z M152.64,39.76c0-4.68-0.02-9.36,0.01-14.04c0.01-1.97-0.41-3.73-2.75-3.67
		c-2.15,0.05-2.55,1.74-2.55,3.6c0.02,9.45,0.02,18.89,0,28.34c0,1.86,0.41,3.51,2.61,3.53c2.19,0.02,2.69-1.58,2.68-3.46
		C152.62,49.29,152.64,44.52,152.64,39.76z"/>
	<path d="M54.51,142.58c-4.95,0-9.9,0.03-14.86-0.01c-6.02-0.05-10.63-4.39-10.81-10.11c-0.18-5.94,4.1-10.86,10.19-10.99
		c10.34-0.22,20.69-0.21,31.04-0.01c6.08,0.12,10.5,5.06,10.31,10.91c-0.18,5.85-4.81,10.16-11.02,10.2
		C64.42,142.6,59.46,142.58,54.51,142.58z M54.64,134.61c4.68,0,9.36-0.03,14.04,0.01c1.97,0.02,3.74-0.35,3.67-2.71
		c-0.06-2.15-1.76-2.58-3.61-2.58c-9.45,0.01-18.89,0.01-28.34,0.01c-1.85,0-3.5,0.44-3.53,2.64c-0.03,2.23,1.58,2.65,3.47,2.63
		C45.1,134.59,49.87,134.61,54.64,134.61z"/>
	<path d="M245.45,142.58c-4.95,0-9.9,0.03-14.86-0.01c-6.18-0.04-10.83-4.39-10.99-10.23c-0.16-5.93,4.4-10.82,10.61-10.91
		c10.08-0.15,20.16-0.14,30.24-0.01c6.29,0.08,10.78,4.79,10.69,10.8c-0.09,5.97-4.74,10.32-11.11,10.35
		C255.18,142.6,250.32,142.58,245.45,142.58z M245.23,134.61c4.86,0,9.71-0.02,14.57,0.01c1.8,0.01,3.29-0.47,3.33-2.51
		c0.05-2.19-1.53-2.76-3.41-2.76c-9.53,0-19.07,0-28.6,0c-1.88,0-3.5,0.55-3.47,2.71c0.02,2.18,1.67,2.59,3.55,2.57
		C235.87,134.58,240.55,134.61,245.23,134.61z"/>
</g>
</svg>
