<?xml version="1.0" encoding="utf-8"?>
<!-- Generator: Adobe Illustrator 24.2.1, SVG Export Plug-In . SVG Version: 6.00 Build 0)  -->
<svg version="1.1" id="Layer_1" xmlns="http://www.w3.org/2000/svg" xmlns:xlink="http://www.w3.org/1999/xlink" x="0px" y="0px"
	 viewBox="0 0 300 300" style="enable-background:new 0 0 300 300;" xml:space="preserve">
<g>
	<path d="M55.72,212.85c24.71-21.17,48.87-41.88,73.35-62.85c-24.38-20.9-48.55-41.62-73.29-62.82c-0.23,2.23-0.48,3.85-0.54,5.47
		c-0.11,2.97,0.07,5.97-0.18,8.92c-0.31,3.55-2.98,5.85-6.38,5.85c-3.37,0.01-6.35-2.36-6.43-5.8c-0.13-5.08-0.29-10.26,0.5-15.25
		c1.9-12.06,12.57-20.95,24.77-21.27c0.74-0.02,1.49-0.03,2.23-0.03c66.58,0,133.16-0.01,199.74,0.01c13.75,0,24.15,7.99,26.9,20.72
		c0.51,2.36,0.57,4.86,0.57,7.29c0.03,37.96,0.04,75.92,0.01,113.88c-0.01,17.04-10.9,27.93-27.9,27.93
		c-66.37,0.01-132.73,0.01-199.1,0c-16.88,0-27.84-11.07-27.86-28.03c0-2.45-0.05-4.89,0.01-7.34c0.1-4.15,2.6-6.87,6.32-6.97
		c3.88-0.11,6.53,2.54,6.72,6.88c0.12,2.65-0.01,5.32,0.06,7.97C55.28,208.98,55.51,210.52,55.72,212.85z M65.7,78.32
		c1.35,1.23,2.02,1.88,2.73,2.49c31.75,27.16,63.5,54.33,95.26,81.48c4.56,3.9,7.27,3.9,11.74,0.07
		c31.83-27.24,63.66-54.48,95.48-81.72c0.69-0.59,1.34-1.25,2.48-2.32C204.04,78.32,135.32,78.32,65.7,78.32z M65.68,221.56
		c69.58,0,138.32,0,207.84,0c-24.9-21.35-49.16-42.15-73.53-63.05c-6.18,5.36-12.04,10.6-18.08,15.64
		c-6.86,5.72-15.95,6.14-23.07,1.25c-0.96-0.66-1.84-1.44-2.72-2.21c-5.61-4.85-11.2-9.7-16.95-14.68
		C114.71,179.5,90.47,200.29,65.68,221.56z M210.12,150c24.47,20.97,48.63,41.68,72.86,62.44c1.45-3.6,1.38-121.57-0.06-124.83
		C258.77,108.31,234.67,128.96,210.12,150z"/>
	<path d="M38.67,172.92c-9.46,0-18.92,0.05-28.37-0.02c-5.01-0.04-8.02-3.49-7.15-7.95c0.62-3.2,3.28-5.16,7.39-5.19
		c8.18-0.06,16.37-0.02,24.55-0.02c10.63,0,21.25-0.03,31.88,0.02c4.42,0.02,7.23,2.14,7.71,5.6c0.59,4.31-2.42,7.52-7.31,7.56
		C57.8,172.97,48.24,172.92,38.67,172.92z"/>
	<path d="M48.64,127.08c6.17,0,12.33-0.03,18.5,0.01c4.64,0.03,7.5,2.49,7.59,6.38c0.1,4.04-2.78,6.75-7.53,6.78
		c-12.33,0.07-24.66,0.06-36.99,0c-4.73-0.02-7.76-2.79-7.67-6.71c0.09-3.91,3.13-6.42,7.93-6.45
		C36.52,127.05,42.58,127.08,48.64,127.08z"/>
</g>
</svg>
